<svg width="716" height="160" viewBox="0 0 716 160" fill="none" xmlns="http://www.w3.org/2000/svg">
<mask id="path-1-outside-1_96_99" maskUnits="userSpaceOnUse" x="0" y="0" width="716" height="160" fill="black">
<rect fill="white" width="716" height="160"/>
<path d="M5.375 153V7.54545H68.4432C79.5227 7.54545 88.8267 9.03693 96.3551 12.0199C103.931 15.0028 109.636 19.2169 113.472 24.6619C117.354 30.107 119.295 36.5227 119.295 43.9091C119.295 49.2595 118.112 54.1364 115.744 58.5398C113.424 62.9432 110.157 66.6364 105.943 69.6193C101.729 72.5549 96.8049 74.5909 91.1705 75.7273V77.1477C97.4205 77.3845 103.102 78.9706 108.216 81.9062C113.33 84.7945 117.402 88.7955 120.432 93.9091C123.462 98.9754 124.977 104.941 124.977 111.807C124.977 119.761 122.894 126.84 118.727 133.043C114.608 139.245 108.737 144.122 101.114 147.673C93.4905 151.224 84.3996 153 73.8409 153H5.375ZM44.8636 121.466H63.3295C69.9583 121.466 74.9299 120.235 78.2443 117.773C81.5587 115.263 83.2159 111.57 83.2159 106.693C83.2159 103.284 82.4347 100.396 80.8722 98.0284C79.3097 95.661 77.0843 93.8617 74.196 92.6307C71.3551 91.3996 67.9224 90.7841 63.8977 90.7841H44.8636V121.466ZM44.8636 66.3523H61.0568C64.5133 66.3523 67.5672 65.8078 70.2188 64.7188C72.8703 63.6297 74.9299 62.0672 76.3977 60.0312C77.9129 57.9479 78.6705 55.4148 78.6705 52.4318C78.6705 47.9337 77.0606 44.5009 73.8409 42.1335C70.6212 39.7188 66.5492 38.5114 61.625 38.5114H44.8636V66.3523ZM279.878 80.2727C279.878 96.4659 276.729 110.126 270.432 121.253C264.134 132.332 255.635 140.737 244.935 146.466C234.234 152.148 222.302 154.989 209.139 154.989C195.882 154.989 183.902 152.124 173.202 146.395C162.548 140.618 154.073 132.19 147.776 121.111C141.526 109.984 138.401 96.3712 138.401 80.2727C138.401 64.0795 141.526 50.4432 147.776 39.3636C154.073 28.2367 162.548 19.8324 173.202 14.1506C183.902 8.4214 195.882 5.55681 209.139 5.55681C222.302 5.55681 234.234 8.4214 244.935 14.1506C255.635 19.8324 264.134 28.2367 270.432 39.3636C276.729 50.4432 279.878 64.0795 279.878 80.2727ZM239.253 80.2727C239.253 71.5606 238.093 64.2216 235.773 58.2557C233.5 52.2424 230.115 47.697 225.616 44.6193C221.166 41.4943 215.673 39.9318 209.139 39.9318C202.605 39.9318 197.089 41.4943 192.591 44.6193C188.14 47.697 184.755 52.2424 182.435 58.2557C180.162 64.2216 179.026 71.5606 179.026 80.2727C179.026 88.9848 180.162 96.3475 182.435 102.361C184.755 108.327 188.14 112.872 192.591 115.997C197.089 119.075 202.605 120.614 209.139 120.614C215.673 120.614 221.166 119.075 225.616 115.997C230.115 112.872 233.5 108.327 235.773 102.361C238.093 96.3475 239.253 88.9848 239.253 80.2727ZM326.753 153H284.139L332.151 7.54545H386.128L434.139 153H391.526L359.707 47.6023H358.571L326.753 153ZM318.798 95.6136H398.912V125.159H318.798V95.6136ZM448.148 153V7.54545H510.933C521.728 7.54545 531.174 9.51041 539.271 13.4403C547.367 17.3703 553.665 23.0284 558.163 30.4148C562.661 37.8011 564.91 46.6553 564.91 56.9773C564.91 67.3939 562.59 76.1771 557.95 83.3267C553.357 90.4763 546.894 95.8741 538.56 99.5199C530.274 103.166 520.592 104.989 509.512 104.989H472.012V74.3068H501.558C506.198 74.3068 510.151 73.7386 513.418 72.6023C516.733 71.4186 519.266 69.5483 521.018 66.9915C522.817 64.4347 523.717 61.0966 523.717 56.9773C523.717 52.8106 522.817 49.4252 521.018 46.821C519.266 44.1695 516.733 42.2282 513.418 40.9972C510.151 39.7187 506.198 39.0795 501.558 39.0795H487.637V153H448.148ZM533.376 86.2386L569.739 153H526.842L491.33 86.2386H533.376ZM637.708 153H581.742V7.54545H637.14C652.102 7.54545 665.028 10.4574 675.918 16.2812C686.856 22.0578 695.284 30.3911 701.202 41.2812C707.168 52.1241 710.151 65.1212 710.151 80.2727C710.151 95.4242 707.192 108.445 701.273 119.335C695.355 130.178 686.974 138.511 676.131 144.335C665.289 150.112 652.481 153 637.708 153ZM621.231 119.477H636.288C643.485 119.477 649.616 118.317 654.683 115.997C659.796 113.677 663.679 109.676 666.33 103.994C669.029 98.3125 670.379 90.4053 670.379 80.2727C670.379 70.1402 669.005 62.233 666.259 56.5511C663.56 50.8693 659.583 46.8684 654.327 44.5483C649.119 42.2282 642.727 41.0682 635.151 41.0682H621.231V119.477Z"/>
</mask>
<path d="M5.375 153H0.375V158H5.375V153ZM5.375 7.54545V2.54545H0.375V7.54545H5.375ZM96.3551 12.0199L94.5133 16.6683L94.5233 16.6722L96.3551 12.0199ZM113.472 24.6619L109.384 27.5412L109.392 27.553L109.401 27.5648L113.472 24.6619ZM115.744 58.5398L111.34 56.1721L111.331 56.1905L111.321 56.2091L115.744 58.5398ZM105.943 69.6193L108.801 73.722L108.817 73.7112L108.832 73.7003L105.943 69.6193ZM91.1705 75.7273L90.182 70.826L86.1705 71.635V75.7273H91.1705ZM91.1705 77.1477H86.1705V81.9619L90.9812 82.1441L91.1705 77.1477ZM108.216 81.9062L105.727 86.2425L105.742 86.2512L105.757 86.2598L108.216 81.9062ZM120.432 93.9091L116.13 96.4581L116.136 96.4669L116.141 96.4757L120.432 93.9091ZM118.727 133.043L114.577 130.255L114.569 130.265L114.562 130.276L118.727 133.043ZM101.114 147.673L99.0023 143.141L99.0023 143.141L101.114 147.673ZM44.8636 121.466H39.8636V126.466H44.8636V121.466ZM78.2443 117.773L81.2259 121.786L81.2443 121.773L81.2625 121.759L78.2443 117.773ZM74.196 92.6307L72.208 97.2185L72.2217 97.2244L72.2355 97.2303L74.196 92.6307ZM44.8636 90.7841V85.7841H39.8636V90.7841H44.8636ZM44.8636 66.3523H39.8636V71.3523H44.8636V66.3523ZM70.2188 64.7188L72.1183 69.3439L72.1183 69.3438L70.2188 64.7188ZM76.3977 60.0312L72.354 57.0904L72.3479 57.0988L72.3419 57.1072L76.3977 60.0312ZM73.8409 42.1335L70.8409 46.1335L70.8599 46.1477L70.879 46.1618L73.8409 42.1335ZM44.8636 38.5114V33.5114H39.8636V38.5114H44.8636ZM5.375 153H10.375V7.54545H5.375H0.375V153H5.375ZM5.375 7.54545V12.5455H68.4432V7.54545V2.54545H5.375V7.54545ZM68.4432 7.54545V12.5455C79.1091 12.5455 87.7438 13.986 94.5133 16.6683L96.3551 12.0199L98.1969 7.37148C89.9096 4.08782 79.9363 2.54545 68.4432 2.54545V7.54545ZM96.3551 12.0199L94.5233 16.6722C101.394 19.3775 106.225 23.0568 109.384 27.5412L113.472 24.6619L117.559 21.7827C113.047 15.3769 106.468 10.6282 98.187 7.36754L96.3551 12.0199ZM113.472 24.6619L109.401 27.5648C112.616 32.0742 114.295 37.4495 114.295 43.9091H119.295H124.295C124.295 35.596 122.092 28.1398 117.543 21.7591L113.472 24.6619ZM119.295 43.9091H114.295C114.295 48.4928 113.289 52.5473 111.34 56.1721L115.744 58.5398L120.148 60.9074C122.934 55.7254 124.295 50.0261 124.295 43.9091H119.295ZM115.744 58.5398L111.321 56.2091C109.381 59.8901 106.651 62.9924 103.054 65.5383L105.943 69.6193L108.832 73.7003C113.663 70.2803 117.467 65.9963 120.168 60.8705L115.744 58.5398ZM105.943 69.6193L103.085 65.5167C99.4965 68.0167 95.2253 69.8088 90.182 70.826L91.1705 75.7273L92.159 80.6286C98.3846 79.373 103.962 77.0932 108.801 73.722L105.943 69.6193ZM91.1705 75.7273H86.1705V77.1477H91.1705H96.1705V75.7273H91.1705ZM91.1705 77.1477L90.9812 82.1441C96.4729 82.3522 101.358 83.7343 105.727 86.2425L108.216 81.9062L110.705 77.57C104.847 74.2069 98.368 72.4168 91.3597 72.1513L91.1705 77.1477ZM108.216 81.9062L105.757 86.2598C110.1 88.7126 113.54 92.0872 116.13 96.4581L120.432 93.9091L124.733 91.3601C121.263 85.5037 116.56 80.8764 110.675 77.5527L108.216 81.9062ZM120.432 93.9091L116.141 96.4757C118.636 100.647 119.977 105.696 119.977 111.807H124.977H129.977C129.977 104.187 128.288 97.3034 124.723 91.3425L120.432 93.9091ZM124.977 111.807H119.977C119.977 118.836 118.153 124.93 114.577 130.255L118.727 133.043L122.878 135.831C127.635 128.749 129.977 120.687 129.977 111.807H124.977ZM118.727 133.043L114.562 130.276C111.015 135.617 105.902 139.927 99.0023 143.141L101.114 147.673L103.225 152.206C111.572 148.318 118.201 142.874 122.892 135.809L118.727 133.043ZM101.114 147.673L99.0023 143.141C92.1869 146.316 83.8512 148 73.8409 148V153V158C84.9481 158 94.7942 156.133 103.225 152.206L101.114 147.673ZM73.8409 153V148H5.375V153V158H73.8409V153ZM44.8636 121.466V126.466H63.3295V121.466V116.466H44.8636V121.466ZM63.3295 121.466V126.466C70.4317 126.466 76.6675 125.173 81.2259 121.786L78.2443 117.773L75.2627 113.759C73.1924 115.297 69.485 116.466 63.3295 116.466V121.466ZM78.2443 117.773L81.2625 121.759C86.0508 118.134 88.2159 112.83 88.2159 106.693H83.2159H78.2159C78.2159 110.311 77.0667 112.393 75.2261 113.786L78.2443 117.773ZM83.2159 106.693H88.2159C88.2159 102.505 87.2478 98.6114 85.0452 95.2742L80.8722 98.0284L76.6991 100.783C77.6216 102.18 78.2159 104.063 78.2159 106.693H83.2159ZM80.8722 98.0284L85.0452 95.2742C82.8852 92.0015 79.8472 89.6041 76.1565 88.0311L74.196 92.6307L72.2355 97.2303C74.3214 98.1193 75.7341 99.3205 76.6991 100.783L80.8722 98.0284ZM74.196 92.6307L76.1841 88.0429C72.5578 86.4715 68.4103 85.7841 63.8977 85.7841V90.7841V95.7841C67.4345 95.7841 70.1524 96.3277 72.208 97.2185L74.196 92.6307ZM63.8977 90.7841V85.7841H44.8636V90.7841V95.7841H63.8977V90.7841ZM44.8636 90.7841H39.8636V121.466H44.8636H49.8636V90.7841H44.8636ZM44.8636 66.3523V71.3523H61.0568V66.3523V61.3523H44.8636V66.3523ZM61.0568 66.3523V71.3523C65.0339 71.3523 68.7538 70.7257 72.1183 69.3439L70.2188 64.7188L68.3192 60.0936C66.3807 60.8898 63.9926 61.3523 61.0568 61.3523V66.3523ZM70.2188 64.7188L72.1183 69.3438C75.5078 67.9517 78.3657 65.8514 80.4536 62.9553L76.3977 60.0312L72.3419 57.1072C71.4942 58.2831 70.2327 59.3077 68.3192 60.0937L70.2188 64.7188ZM76.3977 60.0312L80.4414 62.9721C82.6726 59.9042 83.6705 56.2986 83.6705 52.4318H78.6705H73.6705C73.6705 54.531 73.1531 55.9916 72.354 57.0904L76.3977 60.0312ZM78.6705 52.4318H83.6705C83.6705 46.573 81.4784 41.5432 76.8029 38.1053L73.8409 42.1335L70.879 46.1618C72.6428 47.4587 73.6705 49.2944 73.6705 52.4318H78.6705ZM73.8409 42.1335L76.8409 38.1335C72.5769 34.9355 67.3839 33.5114 61.625 33.5114V38.5114V43.5114C65.7146 43.5114 68.6655 44.502 70.8409 46.1335L73.8409 42.1335ZM61.625 38.5114V33.5114H44.8636V38.5114V43.5114H61.625V38.5114ZM44.8636 38.5114H39.8636V66.3523H44.8636H49.8636V38.5114H44.8636ZM270.432 121.253L274.779 123.724L274.783 123.716L270.432 121.253ZM244.935 146.466L247.279 150.882L247.287 150.878L247.295 150.874L244.935 146.466ZM173.202 146.395L170.818 150.79L170.83 150.797L170.842 150.803L173.202 146.395ZM147.776 121.111L143.416 123.559L143.422 123.57L143.429 123.581L147.776 121.111ZM147.776 39.3636L143.424 36.9009L143.421 36.907L147.776 39.3636ZM173.202 14.1506L175.555 18.5623L175.562 18.5585L173.202 14.1506ZM244.935 14.1506L242.575 18.5585L242.582 18.5626L242.59 18.5666L244.935 14.1506ZM270.432 39.3636L266.08 41.8264L266.085 41.8343L270.432 39.3636ZM235.773 58.2557L231.096 60.0234L231.104 60.0457L231.113 60.0679L235.773 58.2557ZM225.616 44.6193L222.743 48.7114L222.768 48.7288L222.793 48.7458L225.616 44.6193ZM192.591 44.6193L195.435 48.7319L195.444 48.7256L192.591 44.6193ZM182.435 58.2557L177.77 56.4559L177.766 56.4658L177.762 56.4757L182.435 58.2557ZM182.435 102.361L177.758 104.129L177.766 104.151L177.775 104.173L182.435 102.361ZM192.591 115.997L189.718 120.089L189.743 120.107L189.767 120.124L192.591 115.997ZM225.616 115.997L228.46 120.11L228.469 120.103L225.616 115.997ZM235.773 102.361L231.108 100.561L231.104 100.571L231.1 100.581L235.773 102.361ZM279.878 80.2727H274.878C274.878 95.8287 271.854 108.589 266.08 118.79L270.432 121.253L274.783 123.716C281.605 111.663 284.878 97.1031 284.878 80.2727H279.878ZM270.432 121.253L266.085 118.782C260.229 129.084 252.401 136.797 242.575 142.058L244.935 146.466L247.295 150.874C258.87 144.677 268.04 135.58 274.779 123.724L270.432 121.253ZM244.935 146.466L242.59 142.05C232.672 147.316 221.557 149.989 209.139 149.989V154.989V159.989C223.047 159.989 235.795 156.98 247.279 150.882L244.935 146.466ZM209.139 154.989V149.989C196.627 149.989 185.471 147.292 175.562 141.987L173.202 146.395L170.842 150.803C182.334 156.956 195.136 159.989 209.139 159.989V154.989ZM173.202 146.395L175.585 141.999C165.796 136.692 157.983 128.951 152.122 118.64L147.776 121.111L143.429 123.581C150.163 135.43 159.3 144.545 170.818 150.79L173.202 146.395ZM147.776 121.111L152.135 118.662C146.401 108.454 143.401 95.7339 143.401 80.2727H138.401H133.401C133.401 97.0085 136.65 111.514 143.416 123.559L147.776 121.111ZM138.401 80.2727H143.401C143.401 64.71 146.404 51.9722 152.13 41.8202L147.776 39.3636L143.421 36.907C136.647 48.9141 133.401 63.4491 133.401 80.2727H138.401ZM147.776 39.3636L152.127 41.8264C157.986 31.4747 165.789 23.7706 175.555 18.5623L173.202 14.1506L170.849 9.7388C159.307 15.8942 150.16 24.9988 143.424 36.9009L147.776 39.3636ZM173.202 14.1506L175.562 18.5585C185.471 13.2531 196.627 10.5568 209.139 10.5568V5.55681V0.556813C195.136 0.556813 182.334 3.58967 170.842 9.74258L173.202 14.1506ZM209.139 5.55681V10.5568C221.55 10.5568 232.66 13.2503 242.575 18.5585L244.935 14.1506L247.295 9.74258C235.808 3.59246 223.054 0.556813 209.139 0.556813V5.55681ZM244.935 14.1506L242.59 18.5666C252.402 23.7766 260.225 31.4804 266.08 41.8264L270.432 39.3636L274.783 36.9009C268.044 24.9931 258.869 15.8882 247.279 9.73448L244.935 14.1506ZM270.432 39.3636L266.085 41.8343C271.853 51.9832 274.878 64.7157 274.878 80.2727H279.878H284.878C284.878 63.4434 281.605 48.9031 274.779 36.893L270.432 39.3636ZM239.253 80.2727H244.253C244.253 71.15 243.043 63.1545 240.433 56.4434L235.773 58.2557L231.113 60.0679C233.143 65.2886 234.253 71.9712 234.253 80.2727H239.253ZM235.773 58.2557L240.45 56.488C237.882 49.6934 233.926 44.2464 228.44 40.4928L225.616 44.6193L222.793 48.7458C226.303 51.1475 229.118 54.7914 231.096 60.0234L235.773 58.2557ZM225.616 44.6193L228.49 40.5272C223.039 36.7005 216.49 34.9318 209.139 34.9318V39.9318V44.9318C214.856 44.9318 219.292 46.2881 222.743 48.7114L225.616 44.6193ZM209.139 39.9318V34.9318C201.786 34.9318 195.225 36.7011 189.738 40.513L192.591 44.6193L195.444 48.7256C198.953 46.2875 203.424 44.9318 209.139 44.9318V39.9318ZM192.591 44.6193L189.747 40.5068C184.324 44.257 180.381 49.6888 177.77 56.4559L182.435 58.2557L187.099 60.0555C189.129 54.796 191.957 51.1369 195.435 48.7318L192.591 44.6193ZM182.435 58.2557L177.762 56.4757C175.21 63.1759 174.026 71.1594 174.026 80.2727H179.026H184.026C184.026 71.9618 185.114 65.2673 187.107 60.0357L182.435 58.2557ZM179.026 80.2727H174.026C174.026 89.388 175.21 97.3889 177.758 104.129L182.435 102.361L187.112 100.593C185.114 95.3062 184.026 88.5817 184.026 80.2727H179.026ZM182.435 102.361L177.775 104.173C180.388 110.892 184.325 116.303 189.718 120.089L192.591 115.997L195.464 111.905C191.955 109.442 189.122 105.761 187.095 100.549L182.435 102.361ZM192.591 115.997L189.767 120.124C195.251 123.876 201.801 125.614 209.139 125.614V120.614V115.614C203.409 115.614 198.927 114.274 195.414 111.871L192.591 115.997ZM209.139 120.614V125.614C216.475 125.614 223.013 123.876 228.46 120.11L225.616 115.997L222.773 111.885C219.318 114.273 214.872 115.614 209.139 115.614V120.614ZM225.616 115.997L228.469 120.103C233.925 116.313 237.875 110.888 240.445 104.141L235.773 102.361L231.1 100.581C229.125 105.766 226.305 109.431 222.764 111.891L225.616 115.997ZM235.773 102.361L240.438 104.161C243.042 97.4102 244.253 89.3974 244.253 80.2727H239.253H234.253C234.253 88.5723 233.144 95.2849 231.108 100.561L235.773 102.361ZM326.753 153V158H330.466L331.539 154.445L326.753 153ZM284.139 153L279.391 151.433L277.223 158H284.139V153ZM332.151 7.54545V2.54545H328.536L327.403 5.97823L332.151 7.54545ZM386.128 7.54545L390.876 5.97823L389.743 2.54545H386.128V7.54545ZM434.139 153V158H441.055L438.887 151.433L434.139 153ZM391.526 153L386.739 154.445L387.812 158H391.526V153ZM359.707 47.6023L364.494 46.1573L363.421 42.6023H359.707V47.6023ZM358.571 47.6023V42.6023H354.858L353.784 46.1573L358.571 47.6023ZM318.798 95.6136V90.6136H313.798V95.6136H318.798ZM398.912 95.6136H403.912V90.6136H398.912V95.6136ZM398.912 125.159V130.159H403.912V125.159H398.912ZM318.798 125.159H313.798V130.159H318.798V125.159ZM326.753 153V148H284.139V153V158H326.753V153ZM284.139 153L288.887 154.567L336.899 9.11267L332.151 7.54545L327.403 5.97823L279.391 151.433L284.139 153ZM332.151 7.54545V12.5455H386.128V7.54545V2.54545H332.151V7.54545ZM386.128 7.54545L381.38 9.11267L429.391 154.567L434.139 153L438.887 151.433L390.876 5.97823L386.128 7.54545ZM434.139 153V148H391.526V153V158H434.139V153ZM391.526 153L396.312 151.555L364.494 46.1573L359.707 47.6023L354.921 49.0473L386.739 154.445L391.526 153ZM359.707 47.6023V42.6023H358.571V47.6023V52.6023H359.707V47.6023ZM358.571 47.6023L353.784 46.1573L321.966 151.555L326.753 153L331.539 154.445L363.358 49.0473L358.571 47.6023ZM318.798 95.6136V100.614H398.912V95.6136V90.6136H318.798V95.6136ZM398.912 95.6136H393.912V125.159H398.912H403.912V95.6136H398.912ZM398.912 125.159V120.159H318.798V125.159V130.159H398.912V125.159ZM318.798 125.159H323.798V95.6136H318.798H313.798V125.159H318.798ZM448.148 153H443.148V158H448.148V153ZM448.148 7.54545V2.54545H443.148V7.54545H448.148ZM539.271 13.4403L537.087 17.9385L539.271 13.4403ZM558.163 30.4148L562.433 27.8142L562.433 27.8142L558.163 30.4148ZM557.95 83.3267L553.755 80.6047L553.749 80.6145L553.743 80.6243L557.95 83.3267ZM538.56 99.5199L536.556 94.9391L536.547 94.9433L538.56 99.5199ZM472.012 104.989H467.012V109.989H472.012V104.989ZM472.012 74.3068V69.3068H467.012V74.3068H472.012ZM513.418 72.6023L515.061 77.3248L515.08 77.3179L515.1 77.311L513.418 72.6023ZM521.018 66.9915L516.929 64.114L516.911 64.1396L516.893 64.1653L521.018 66.9915ZM521.018 46.821L516.846 49.5773L516.875 49.6205L516.904 49.6632L521.018 46.821ZM513.418 40.9972L511.596 45.6534L511.637 45.6692L511.677 45.6843L513.418 40.9972ZM487.637 39.0795V34.0795H482.637V39.0795H487.637ZM487.637 153V158H492.637V153H487.637ZM533.376 86.2386L537.767 83.847L536.346 81.2386H533.376V86.2386ZM569.739 153V158H578.156L574.13 150.608L569.739 153ZM526.842 153L522.427 155.348L523.838 158H526.842V153ZM491.33 86.2386V81.2386H483.007L486.916 88.5867L491.33 86.2386ZM448.148 153H453.148V7.54545H448.148H443.148V153H448.148ZM448.148 7.54545V12.5455H510.933V7.54545V2.54545H448.148V7.54545ZM510.933 7.54545V12.5455C521.121 12.5455 529.794 14.3983 537.087 17.9385L539.271 13.4403L541.454 8.94221C532.554 4.62257 522.335 2.54545 510.933 2.54545V7.54545ZM539.271 13.4403L537.087 17.9385C544.357 21.4673 549.914 26.4832 553.892 33.0154L558.163 30.4148L562.433 27.8142C557.415 19.5737 550.377 13.2733 541.454 8.94221L539.271 13.4403ZM558.163 30.4148L553.892 33.0154C557.828 39.4783 559.91 47.3938 559.91 56.9773H564.91H569.91C569.91 45.9168 567.494 36.1239 562.433 27.8142L558.163 30.4148ZM564.91 56.9773H559.91C559.91 66.6437 557.763 74.4294 553.755 80.6047L557.95 83.3267L562.144 86.0487C567.416 77.9248 569.91 68.1441 569.91 56.9773H564.91ZM557.95 83.3267L553.743 80.6243C549.721 86.8851 544.053 91.6593 536.556 94.9391L538.56 99.5199L540.564 104.101C549.734 100.089 556.993 94.0676 562.156 86.0291L557.95 83.3267ZM538.56 99.5199L536.547 94.9433C529.021 98.2548 520.05 99.9886 509.512 99.9886V104.989V109.989C521.133 109.989 531.528 108.077 540.574 104.096L538.56 99.5199ZM509.512 104.989V99.9886H472.012V104.989V109.989H509.512V104.989ZM472.012 104.989H477.012V74.3068H472.012H467.012V104.989H472.012ZM472.012 74.3068V79.3068H501.558V74.3068V69.3068H472.012V74.3068ZM501.558 74.3068V79.3068C506.578 79.3068 511.12 78.6955 515.061 77.3248L513.418 72.6023L511.776 67.8798C509.183 68.7817 505.817 69.3068 501.558 69.3068V74.3068ZM513.418 72.6023L515.1 77.311C519.267 75.8229 522.716 73.3589 525.142 69.8176L521.018 66.9915L516.893 64.1653C515.816 65.7377 514.199 67.0142 511.737 67.8936L513.418 72.6023ZM521.018 66.9915L525.107 69.8689C527.661 66.2388 528.717 61.8029 528.717 56.9773H523.717H518.717C518.717 60.3903 517.973 62.6305 516.929 64.114L521.018 66.9915ZM523.717 56.9773H528.717C528.717 52.1127 527.665 47.6462 525.131 43.9789L521.018 46.821L516.904 49.6632C517.969 51.2041 518.717 53.5086 518.717 56.9773H523.717ZM521.018 46.821L525.189 44.0647C522.787 40.429 519.351 37.8669 515.159 36.31L513.418 40.9972L511.677 45.6843C514.115 46.5895 515.745 47.9101 516.846 49.5773L521.018 46.821ZM513.418 40.9972L515.24 36.3409C511.239 34.7751 506.631 34.0795 501.558 34.0795V39.0795V44.0795C505.764 44.0795 509.064 44.6624 511.596 45.6534L513.418 40.9972ZM501.558 39.0795V34.0795H487.637V39.0795V44.0795H501.558V39.0795ZM487.637 39.0795H482.637V153H487.637H492.637V39.0795H487.637ZM487.637 153V148H448.148V153V158H487.637V153ZM533.376 86.2386L528.985 88.6303L565.348 155.392L569.739 153L574.13 150.608L537.767 83.847L533.376 86.2386ZM569.739 153V148H526.842V153V158H569.739V153ZM526.842 153L531.256 150.652L495.745 83.8906L491.33 86.2386L486.916 88.5867L522.427 155.348L526.842 153ZM491.33 86.2386V91.2386H533.376V86.2386V81.2386H491.33V86.2386ZM581.742 153H576.742V158H581.742V153ZM581.742 7.54545V2.54545H576.742V7.54545H581.742ZM675.918 16.2812L673.56 20.6904L673.572 20.6965L673.583 20.7025L675.918 16.2812ZM701.202 41.2812L696.809 43.6688L696.815 43.6802L696.822 43.6916L701.202 41.2812ZM701.273 119.335L705.662 121.731L705.667 121.723L701.273 119.335ZM676.131 144.335L678.482 148.748L678.49 148.744L678.497 148.74L676.131 144.335ZM621.231 119.477H616.231V124.477H621.231V119.477ZM654.683 115.997L652.617 111.444L652.609 111.448L652.601 111.451L654.683 115.997ZM666.33 103.994L661.814 101.849L661.807 101.864L661.799 101.88L666.33 103.994ZM666.259 56.5511L661.743 58.6964L661.75 58.7117L661.757 58.727L666.259 56.5511ZM654.327 44.5483L652.293 49.1156L652.301 49.119L652.308 49.1224L654.327 44.5483ZM621.231 41.0682V36.0682H616.231V41.0682H621.231ZM637.708 153V148H581.742V153V158H637.708V153ZM581.742 153H586.742V7.54545H581.742H576.742V153H581.742ZM581.742 7.54545V12.5455H637.14V7.54545V2.54545H581.742V7.54545ZM637.14 7.54545V12.5455C651.452 12.5455 663.534 15.3284 673.56 20.6904L675.918 16.2812L678.276 11.8721C666.522 5.58639 652.752 2.54545 637.14 2.54545V7.54545ZM675.918 16.2812L673.583 20.7025C683.647 26.0178 691.36 33.6427 696.809 43.6688L701.202 41.2812L705.596 38.8937C699.207 27.1395 690.064 18.0978 678.253 11.86L675.918 16.2812ZM701.202 41.2812L696.822 43.6916C702.3 53.6476 705.151 65.7767 705.151 80.2727H710.151H715.151C715.151 64.4657 712.037 50.6005 705.583 38.8709L701.202 41.2812ZM710.151 80.2727H705.151C705.151 94.7739 702.321 106.936 696.88 116.948L701.273 119.335L705.667 121.723C712.063 109.954 715.151 96.0746 715.151 80.2727H710.151ZM701.273 119.335L696.885 116.94C691.429 126.934 683.75 134.568 673.765 139.93L676.131 144.335L678.497 148.74C690.198 142.455 699.28 133.422 705.662 121.731L701.273 119.335ZM676.131 144.335L673.78 139.922C663.794 145.243 651.826 148 637.708 148V153V158C653.136 158 666.783 154.981 678.482 148.748L676.131 144.335ZM621.231 119.477V124.477H636.288V119.477V114.477H621.231V119.477ZM636.288 119.477V124.477C644.002 124.477 650.884 123.236 656.764 120.543L654.683 115.997L652.601 111.451C648.349 113.398 642.967 114.477 636.288 114.477V119.477ZM654.683 115.997L656.748 120.55C663.076 117.679 667.768 112.737 670.861 106.109L666.33 103.994L661.799 101.88C659.589 106.615 656.516 109.675 652.617 111.444L654.683 115.997ZM666.33 103.994L670.847 106.14C674 99.5003 675.379 90.7454 675.379 80.2727H670.379H665.379C665.379 90.0652 664.058 97.1247 661.814 101.849L666.33 103.994ZM670.379 80.2727H675.379C675.379 69.7923 673.975 61.0248 670.761 54.3753L666.259 56.5511L661.757 58.727C664.036 63.4411 665.379 70.488 665.379 80.2727H670.379ZM666.259 56.5511L670.776 54.4058C667.615 47.7518 662.806 42.8256 656.347 39.9741L654.327 44.5483L652.308 49.1224C656.36 50.9111 659.506 53.9868 661.743 58.6964L666.259 56.5511ZM654.327 44.5483L656.362 39.9809C650.34 37.2983 643.209 36.0682 635.151 36.0682V41.0682V46.0682C642.245 46.0682 647.899 47.1581 652.293 49.1156L654.327 44.5483ZM635.151 41.0682V36.0682H621.231V41.0682V46.0682H635.151V41.0682ZM621.231 41.0682H616.231V119.477H621.231H626.231V41.0682H621.231Z" fill="black" mask="url(#path-1-outside-1_96_99)"/>
</svg>
