<svg width="468" height="82" viewBox="0 0 468 82" fill="none" xmlns="http://www.w3.org/2000/svg">
<mask id="path-1-outside-1_95_92" maskUnits="userSpaceOnUse" x="0" y="0" width="468" height="82" fill="black">
<rect fill="white" width="468" height="82"/>
<path d="M24.5795 6.18182V76H5.625V6.18182H24.5795ZM52.6875 76V6.18182H71.642V60.7273H99.8693V76H52.6875ZM172.449 41.0909C172.449 48.8636 170.938 55.4205 167.915 60.7614C164.892 66.0795 160.813 70.1136 155.676 72.8636C150.54 75.5909 144.813 76.9545 138.494 76.9545C132.131 76.9545 126.381 75.5795 121.244 72.8295C116.131 70.0568 112.062 66.0114 109.04 60.6932C106.04 55.3523 104.54 48.8182 104.54 41.0909C104.54 33.3182 106.04 26.7727 109.04 21.4545C112.062 16.1136 116.131 12.0795 121.244 9.35227C126.381 6.60227 132.131 5.22727 138.494 5.22727C144.813 5.22727 150.54 6.60227 155.676 9.35227C160.813 12.0795 164.892 16.1136 167.915 21.4545C170.938 26.7727 172.449 33.3182 172.449 41.0909ZM152.949 41.0909C152.949 36.9091 152.392 33.3864 151.278 30.5227C150.188 27.6364 148.563 25.4545 146.403 23.9773C144.267 22.4773 141.631 21.7273 138.494 21.7273C135.358 21.7273 132.71 22.4773 130.551 23.9773C128.415 25.4545 126.79 27.6364 125.676 30.5227C124.585 33.3864 124.04 36.9091 124.04 41.0909C124.04 45.2727 124.585 48.8068 125.676 51.6932C126.79 54.5568 128.415 56.7386 130.551 58.2386C132.71 59.7159 135.358 60.4545 138.494 60.4545C141.631 60.4545 144.267 59.7159 146.403 58.2386C148.563 56.7386 150.188 54.5568 151.278 51.6932C152.392 48.8068 152.949 45.2727 152.949 41.0909ZM195.903 6.18182L210.222 55.4091H210.767L225.085 6.18182H246.494L223.449 76H197.54L174.494 6.18182H195.903ZM253.219 76V6.18182H303.537V21.4545H272.173V33.4545H300.946V48.7273H272.173V60.7273H303.401V76H253.219ZM330.153 21.4545V6.18182H390.835V21.4545H369.835V76H351.153V21.4545H330.153ZM462.324 41.0909C462.324 48.8636 460.813 55.4205 457.79 60.7614C454.767 66.0795 450.688 70.1136 445.551 72.8636C440.415 75.5909 434.688 76.9545 428.369 76.9545C422.006 76.9545 416.256 75.5795 411.119 72.8295C406.006 70.0568 401.938 66.0114 398.915 60.6932C395.915 55.3523 394.415 48.8182 394.415 41.0909C394.415 33.3182 395.915 26.7727 398.915 21.4545C401.938 16.1136 406.006 12.0795 411.119 9.35227C416.256 6.60227 422.006 5.22727 428.369 5.22727C434.688 5.22727 440.415 6.60227 445.551 9.35227C450.688 12.0795 454.767 16.1136 457.79 21.4545C460.813 26.7727 462.324 33.3182 462.324 41.0909ZM442.824 41.0909C442.824 36.9091 442.267 33.3864 441.153 30.5227C440.062 27.6364 438.438 25.4545 436.278 23.9773C434.142 22.4773 431.506 21.7273 428.369 21.7273C425.233 21.7273 422.585 22.4773 420.426 23.9773C418.29 25.4545 416.665 27.6364 415.551 30.5227C414.46 33.3864 413.915 36.9091 413.915 41.0909C413.915 45.2727 414.46 48.8068 415.551 51.6932C416.665 54.5568 418.29 56.7386 420.426 58.2386C422.585 59.7159 425.233 60.4545 428.369 60.4545C431.506 60.4545 434.142 59.7159 436.278 58.2386C438.438 56.7386 440.062 54.5568 441.153 51.6932C442.267 48.8068 442.824 45.2727 442.824 41.0909Z"/>
</mask>
<path d="M24.5795 6.18182H29.5795V1.18182H24.5795V6.18182ZM24.5795 76V81H29.5795V76H24.5795ZM5.625 76H0.625V81H5.625V76ZM5.625 6.18182V1.18182H0.625V6.18182H5.625ZM24.5795 6.18182H19.5795V76H24.5795H29.5795V6.18182H24.5795ZM24.5795 76V71H5.625V76V81H24.5795V76ZM5.625 76H10.625V6.18182H5.625H0.625V76H5.625ZM5.625 6.18182V11.1818H24.5795V6.18182V1.18182H5.625V6.18182ZM52.6875 76H47.6875V81H52.6875V76ZM52.6875 6.18182V1.18182H47.6875V6.18182H52.6875ZM71.642 6.18182H76.642V1.18182H71.642V6.18182ZM71.642 60.7273H66.642V65.7273H71.642V60.7273ZM99.8693 60.7273H104.869V55.7273H99.8693V60.7273ZM99.8693 76V81H104.869V76H99.8693ZM52.6875 76H57.6875V6.18182H52.6875H47.6875V76H52.6875ZM52.6875 6.18182V11.1818H71.642V6.18182V1.18182H52.6875V6.18182ZM71.642 6.18182H66.642V60.7273H71.642H76.642V6.18182H71.642ZM71.642 60.7273V65.7273H99.8693V60.7273V55.7273H71.642V60.7273ZM99.8693 60.7273H94.8693V76H99.8693H104.869V60.7273H99.8693ZM99.8693 76V71H52.6875V76V81H99.8693V76ZM167.915 60.7614L172.262 63.2321L172.266 63.2241L167.915 60.7614ZM155.676 72.8636L158.021 77.2797L158.029 77.2757L158.036 77.2716L155.676 72.8636ZM121.244 72.8295L118.861 77.225L118.873 77.2313L118.884 77.2375L121.244 72.8295ZM109.04 60.6932L104.68 63.1418L104.687 63.1529L104.693 63.1639L109.04 60.6932ZM109.04 21.4545L104.688 18.9918L104.685 18.9979L109.04 21.4545ZM121.244 9.35227L123.597 13.764L123.604 13.7602L121.244 9.35227ZM155.676 9.35227L153.316 13.7602L153.324 13.7643L153.331 13.7684L155.676 9.35227ZM167.915 21.4545L163.563 23.9173L163.568 23.9252L167.915 21.4545ZM151.278 30.5227L146.601 32.2904L146.61 32.3127L146.618 32.335L151.278 30.5227ZM146.403 23.9773L143.53 28.0693L143.555 28.0867L143.58 28.1038L146.403 23.9773ZM130.551 23.9773L133.395 28.0898L133.404 28.0836L130.551 23.9773ZM125.676 30.5227L121.011 28.7229L121.007 28.7328L121.004 28.7427L125.676 30.5227ZM125.676 51.6932L120.999 53.4609L121.007 53.4832L121.016 53.5054L125.676 51.6932ZM130.551 58.2386L127.678 62.3307L127.703 62.3481L127.728 62.3652L130.551 58.2386ZM146.403 58.2386L149.247 62.3512L149.256 62.3449L146.403 58.2386ZM151.278 51.6932L146.614 49.8934L146.61 49.9033L146.606 49.9132L151.278 51.6932ZM172.449 41.0909H167.449C167.449 48.2265 166.062 53.8837 163.563 58.2986L167.915 60.7614L172.266 63.2241C175.813 56.9572 177.449 49.5008 177.449 41.0909H172.449ZM167.915 60.7614L163.568 58.2907C160.987 62.8315 157.578 66.1738 153.316 68.4557L155.676 72.8636L158.036 77.2716C164.047 74.0535 168.797 69.3276 172.262 63.232L167.915 60.7614ZM155.676 72.8636L153.331 68.4476C148.978 70.7589 144.067 71.9545 138.494 71.9545V76.9545V81.9545C145.558 81.9545 152.101 80.423 158.021 77.2797L155.676 72.8636ZM138.494 76.9545V71.9545C132.876 71.9545 127.949 70.7478 123.604 68.4216L121.244 72.8295L118.884 77.2375C124.812 80.4113 131.385 81.9545 138.494 81.9545V76.9545ZM121.244 72.8295L123.628 68.4341C119.379 66.1303 115.973 62.7721 113.387 58.2225L109.04 60.6932L104.693 63.1639C108.152 69.2506 112.883 73.9833 118.861 77.225L121.244 72.8295ZM109.04 60.6932L113.399 58.2445C110.915 53.8225 109.54 48.1809 109.54 41.0909H104.54H99.5398C99.5398 49.4555 101.164 56.882 104.68 63.1418L109.04 60.6932ZM104.54 41.0909H109.54C109.54 33.9486 110.918 28.3018 113.395 23.9112L109.04 21.4545L104.685 18.9979C101.162 25.2437 99.5398 32.6877 99.5398 41.0909H104.54ZM109.04 21.4545L113.391 23.9173C115.975 19.3516 119.372 16.0177 123.597 13.764L121.244 9.35227L118.891 4.94051C112.89 8.14134 108.15 12.8757 104.688 18.9918L109.04 21.4545ZM121.244 9.35227L123.604 13.7602C127.949 11.434 132.876 10.2273 138.494 10.2273V5.22727V0.22727C131.385 0.22727 124.812 1.77054 118.884 4.94429L121.244 9.35227ZM138.494 5.22727V10.2273C144.06 10.2273 148.966 11.4312 153.316 13.7602L155.676 9.35227L158.036 4.94429C152.114 1.77333 145.565 0.22727 138.494 0.22727V5.22727ZM155.676 9.35227L153.331 13.7684C157.579 16.0237 160.983 19.3573 163.563 23.9173L167.915 21.4545L172.266 18.9918C168.802 12.87 164.046 8.13536 158.021 4.93619L155.676 9.35227ZM167.915 21.4545L163.568 23.9252C166.062 28.3128 167.449 33.9543 167.449 41.0909H172.449H177.449C177.449 32.682 175.813 25.2327 172.262 18.9839L167.915 21.4545ZM152.949 41.0909H157.949C157.949 36.4985 157.342 32.3193 155.938 28.7105L151.278 30.5227L146.618 32.335C147.442 34.4534 147.949 37.3197 147.949 41.0909H152.949ZM151.278 30.5227L155.955 28.755C154.569 25.0874 152.374 22.004 149.227 19.8507L146.403 23.9773L143.58 28.1038C144.751 28.9051 145.806 30.1853 146.601 32.2904L151.278 30.5227ZM146.403 23.9773L149.277 19.8852C146.141 17.6835 142.448 16.7273 138.494 16.7273V21.7273V26.7273C140.814 26.7273 142.393 27.2711 143.53 28.0693L146.403 23.9773ZM138.494 21.7273V16.7273C134.539 16.7273 130.846 17.6841 127.698 19.871L130.551 23.9773L133.404 28.0836C134.574 27.2704 136.177 26.7273 138.494 26.7273V21.7273ZM130.551 23.9773L127.707 19.8647C124.598 22.0146 122.416 25.0828 121.011 28.7229L125.676 30.5227L130.341 32.3225C131.164 30.19 132.231 28.8945 133.395 28.0898L130.551 23.9773ZM125.676 30.5227L121.004 28.7427C119.633 32.3407 119.04 36.5079 119.04 41.0909H124.04H129.04C129.04 37.3103 129.537 34.432 130.349 32.3027L125.676 30.5227ZM124.04 41.0909H119.04C119.04 45.6759 119.634 49.8482 120.999 53.4609L125.676 51.6932L130.353 49.9255C129.537 47.7654 129.04 44.8695 129.04 41.0909H124.04ZM125.676 51.6932L121.016 53.5054C122.423 57.1224 124.6 60.1692 127.678 62.3307L130.551 58.2386L133.424 54.1466C132.23 53.308 131.157 51.9912 130.336 49.881L125.676 51.6932ZM130.551 58.2386L127.728 62.3652C130.872 64.5167 134.554 65.4545 138.494 65.4545V60.4545V55.4545C136.162 55.4545 134.548 54.9151 133.375 54.1121L130.551 58.2386ZM138.494 60.4545V65.4545C142.432 65.4545 146.115 64.5173 149.247 62.3512L146.403 58.2386L143.56 54.1261C142.42 54.9145 140.829 55.4545 138.494 55.4545V60.4545ZM146.403 58.2386L149.256 62.3449C152.373 60.1799 154.562 57.1178 155.951 53.4732L151.278 51.6932L146.606 49.9132C145.813 51.9959 144.752 53.2974 143.551 54.1324L146.403 58.2386ZM151.278 51.6932L155.943 53.493C157.341 49.8695 157.949 45.6853 157.949 41.0909H152.949H147.949C147.949 44.8602 147.443 47.7442 146.614 49.8934L151.278 51.6932ZM195.903 6.18182L200.704 4.78539L199.656 1.18182H195.903V6.18182ZM210.222 55.4091L205.421 56.8055L206.469 60.4091H210.222V55.4091ZM210.767 55.4091V60.4091H214.52L215.568 56.8055L210.767 55.4091ZM225.085 6.18182V1.18182H221.332L220.284 4.78539L225.085 6.18182ZM246.494 6.18182L251.242 7.74904L253.41 1.18182H246.494V6.18182ZM223.449 76V81H227.064L228.197 77.5672L223.449 76ZM197.54 76L192.792 77.5672L193.925 81H197.54V76ZM174.494 6.18182V1.18182H167.579L169.746 7.74904L174.494 6.18182ZM195.903 6.18182L191.102 7.57824L205.421 56.8055L210.222 55.4091L215.023 54.0127L200.704 4.78539L195.903 6.18182ZM210.222 55.4091V60.4091H210.767V55.4091V50.4091H210.222V55.4091ZM210.767 55.4091L215.568 56.8055L229.886 7.57824L225.085 6.18182L220.284 4.78539L205.966 54.0127L210.767 55.4091ZM225.085 6.18182V11.1818H246.494V6.18182V1.18182H225.085V6.18182ZM246.494 6.18182L241.746 4.61459L218.701 74.4328L223.449 76L228.197 77.5672L251.242 7.74904L246.494 6.18182ZM223.449 76V71H197.54V76V81H223.449V76ZM197.54 76L202.288 74.4328L179.242 4.61459L174.494 6.18182L169.746 7.74904L192.792 77.5672L197.54 76ZM174.494 6.18182V11.1818H195.903V6.18182V1.18182H174.494V6.18182ZM253.219 76H248.219V81H253.219V76ZM253.219 6.18182V1.18182H248.219V6.18182H253.219ZM303.537 6.18182H308.537V1.18182H303.537V6.18182ZM303.537 21.4545V26.4545H308.537V21.4545H303.537ZM272.173 21.4545V16.4545H267.173V21.4545H272.173ZM272.173 33.4545H267.173V38.4545H272.173V33.4545ZM300.946 33.4545H305.946V28.4545H300.946V33.4545ZM300.946 48.7273V53.7273H305.946V48.7273H300.946ZM272.173 48.7273V43.7273H267.173V48.7273H272.173ZM272.173 60.7273H267.173V65.7273H272.173V60.7273ZM303.401 60.7273H308.401V55.7273H303.401V60.7273ZM303.401 76V81H308.401V76H303.401ZM253.219 76H258.219V6.18182H253.219H248.219V76H253.219ZM253.219 6.18182V11.1818H303.537V6.18182V1.18182H253.219V6.18182ZM303.537 6.18182H298.537V21.4545H303.537H308.537V6.18182H303.537ZM303.537 21.4545V16.4545H272.173V21.4545V26.4545H303.537V21.4545ZM272.173 21.4545H267.173V33.4545H272.173H277.173V21.4545H272.173ZM272.173 33.4545V38.4545H300.946V33.4545V28.4545H272.173V33.4545ZM300.946 33.4545H295.946V48.7273H300.946H305.946V33.4545H300.946ZM300.946 48.7273V43.7273H272.173V48.7273V53.7273H300.946V48.7273ZM272.173 48.7273H267.173V60.7273H272.173H277.173V48.7273H272.173ZM272.173 60.7273V65.7273H303.401V60.7273V55.7273H272.173V60.7273ZM303.401 60.7273H298.401V76H303.401H308.401V60.7273H303.401ZM303.401 76V71H253.219V76V81H303.401V76ZM330.153 21.4545H325.153V26.4545H330.153V21.4545ZM330.153 6.18182V1.18182H325.153V6.18182H330.153ZM390.835 6.18182H395.835V1.18182H390.835V6.18182ZM390.835 21.4545V26.4545H395.835V21.4545H390.835ZM369.835 21.4545V16.4545H364.835V21.4545H369.835ZM369.835 76V81H374.835V76H369.835ZM351.153 76H346.153V81H351.153V76ZM351.153 21.4545H356.153V16.4545H351.153V21.4545ZM330.153 21.4545H335.153V6.18182H330.153H325.153V21.4545H330.153ZM330.153 6.18182V11.1818H390.835V6.18182V1.18182H330.153V6.18182ZM390.835 6.18182H385.835V21.4545H390.835H395.835V6.18182H390.835ZM390.835 21.4545V16.4545H369.835V21.4545V26.4545H390.835V21.4545ZM369.835 21.4545H364.835V76H369.835H374.835V21.4545H369.835ZM369.835 76V71H351.153V76V81H369.835V76ZM351.153 76H356.153V21.4545H351.153H346.153V76H351.153ZM351.153 21.4545V16.4545H330.153V21.4545V26.4545H351.153V21.4545ZM457.79 60.7614L462.137 63.2321L462.141 63.2241L457.79 60.7614ZM445.551 72.8636L447.896 77.2797L447.904 77.2757L447.911 77.2716L445.551 72.8636ZM411.119 72.8295L408.736 77.225L408.748 77.2313L408.759 77.2375L411.119 72.8295ZM398.915 60.6932L394.555 63.1418L394.562 63.1529L394.568 63.1639L398.915 60.6932ZM398.915 21.4545L394.563 18.9918L394.56 18.9979L398.915 21.4545ZM411.119 9.35227L413.472 13.764L413.479 13.7602L411.119 9.35227ZM445.551 9.35227L443.191 13.7602L443.199 13.7643L443.206 13.7684L445.551 9.35227ZM457.79 21.4545L453.438 23.9173L453.443 23.9252L457.79 21.4545ZM441.153 30.5227L436.476 32.2904L436.485 32.3127L436.493 32.335L441.153 30.5227ZM436.278 23.9773L433.405 28.0693L433.43 28.0867L433.455 28.1038L436.278 23.9773ZM420.426 23.9773L423.27 28.0898L423.279 28.0836L420.426 23.9773ZM415.551 30.5227L410.886 28.7229L410.882 28.7328L410.879 28.7427L415.551 30.5227ZM415.551 51.6932L410.874 53.4609L410.882 53.4832L410.891 53.5054L415.551 51.6932ZM420.426 58.2386L417.553 62.3307L417.578 62.3481L417.603 62.3652L420.426 58.2386ZM436.278 58.2386L439.122 62.3512L439.131 62.3449L436.278 58.2386ZM441.153 51.6932L436.489 49.8934L436.485 49.9033L436.481 49.9132L441.153 51.6932ZM462.324 41.0909H457.324C457.324 48.2265 455.937 53.8837 453.438 58.2986L457.79 60.7614L462.141 63.2241C465.688 56.9572 467.324 49.5008 467.324 41.0909H462.324ZM457.79 60.7614L453.443 58.2907C450.862 62.8315 447.453 66.1738 443.191 68.4557L445.551 72.8636L447.911 77.2716C453.922 74.0535 458.672 69.3276 462.137 63.232L457.79 60.7614ZM445.551 72.8636L443.206 68.4476C438.853 70.7589 433.942 71.9545 428.369 71.9545V76.9545V81.9545C435.433 81.9545 441.976 80.423 447.896 77.2797L445.551 72.8636ZM428.369 76.9545V71.9545C422.751 71.9545 417.824 70.7478 413.479 68.4216L411.119 72.8295L408.759 77.2375C414.687 80.4113 421.26 81.9545 428.369 81.9545V76.9545ZM411.119 72.8295L413.503 68.4341C409.254 66.1303 405.848 62.7721 403.262 58.2225L398.915 60.6932L394.568 63.1639C398.027 69.2506 402.758 73.9833 408.736 77.225L411.119 72.8295ZM398.915 60.6932L403.274 58.2445C400.79 53.8225 399.415 48.1809 399.415 41.0909H394.415H389.415C389.415 49.4555 391.039 56.882 394.555 63.1418L398.915 60.6932ZM394.415 41.0909H399.415C399.415 33.9486 400.793 28.3018 403.27 23.9112L398.915 21.4545L394.56 18.9979C391.037 25.2437 389.415 32.6877 389.415 41.0909H394.415ZM398.915 21.4545L403.266 23.9173C405.85 19.3516 409.247 16.0177 413.472 13.764L411.119 9.35227L408.766 4.94051C402.765 8.14134 398.025 12.8757 394.563 18.9918L398.915 21.4545ZM411.119 9.35227L413.479 13.7602C417.824 11.434 422.751 10.2273 428.369 10.2273V5.22727V0.22727C421.26 0.22727 414.687 1.77054 408.759 4.94429L411.119 9.35227ZM428.369 5.22727V10.2273C433.935 10.2273 438.841 11.4312 443.191 13.7602L445.551 9.35227L447.911 4.94429C441.989 1.77333 435.44 0.22727 428.369 0.22727V5.22727ZM445.551 9.35227L443.206 13.7684C447.454 16.0237 450.858 19.3573 453.438 23.9173L457.79 21.4545L462.141 18.9918C458.677 12.87 453.921 8.13536 447.896 4.93619L445.551 9.35227ZM457.79 21.4545L453.443 23.9252C455.937 28.3128 457.324 33.9543 457.324 41.0909H462.324H467.324C467.324 32.682 465.688 25.2327 462.137 18.9839L457.79 21.4545ZM442.824 41.0909H447.824C447.824 36.4985 447.217 32.3193 445.813 28.7105L441.153 30.5227L436.493 32.335C437.317 34.4534 437.824 37.3197 437.824 41.0909H442.824ZM441.153 30.5227L445.83 28.755C444.444 25.0874 442.249 22.004 439.102 19.8507L436.278 23.9773L433.455 28.1038C434.626 28.9051 435.681 30.1853 436.476 32.2904L441.153 30.5227ZM436.278 23.9773L439.152 19.8852C436.016 17.6835 432.323 16.7273 428.369 16.7273V21.7273V26.7273C430.689 26.7273 432.268 27.2711 433.405 28.0693L436.278 23.9773ZM428.369 21.7273V16.7273C424.414 16.7273 420.721 17.6841 417.573 19.871L420.426 23.9773L423.279 28.0836C424.449 27.2704 426.052 26.7273 428.369 26.7273V21.7273ZM420.426 23.9773L417.582 19.8647C414.473 22.0146 412.291 25.0828 410.886 28.7229L415.551 30.5227L420.216 32.3225C421.039 30.19 422.106 28.8945 423.27 28.0898L420.426 23.9773ZM415.551 30.5227L410.879 28.7427C409.508 32.3407 408.915 36.5079 408.915 41.0909H413.915H418.915C418.915 37.3103 419.412 34.432 420.224 32.3027L415.551 30.5227ZM413.915 41.0909H408.915C408.915 45.6759 409.509 49.8482 410.874 53.4609L415.551 51.6932L420.228 49.9255C419.412 47.7654 418.915 44.8695 418.915 41.0909H413.915ZM415.551 51.6932L410.891 53.5054C412.298 57.1224 414.475 60.1692 417.553 62.3307L420.426 58.2386L423.299 54.1466C422.105 53.308 421.032 51.9912 420.211 49.881L415.551 51.6932ZM420.426 58.2386L417.603 62.3652C420.747 64.5167 424.429 65.4545 428.369 65.4545V60.4545V55.4545C426.037 55.4545 424.423 54.9151 423.25 54.1121L420.426 58.2386ZM428.369 60.4545V65.4545C432.307 65.4545 435.99 64.5173 439.122 62.3512L436.278 58.2386L433.435 54.1261C432.295 54.9145 430.704 55.4545 428.369 55.4545V60.4545ZM436.278 58.2386L439.131 62.3449C442.248 60.1799 444.437 57.1178 445.826 53.4732L441.153 51.6932L436.481 49.9132C435.688 51.9959 434.627 53.2974 433.426 54.1324L436.278 58.2386ZM441.153 51.6932L445.818 53.493C447.216 49.8695 447.824 45.6853 447.824 41.0909H442.824H437.824C437.824 44.8602 437.318 47.7442 436.489 49.8934L441.153 51.6932Z" fill="black" mask="url(#path-1-outside-1_95_92)"/>
</svg>
