<svg width="726" height="172" viewBox="0 0 726 172" fill="none" xmlns="http://www.w3.org/2000/svg">
<mask id="path-1-outside-1_96_100" maskUnits="userSpaceOnUse" x="0" y="0" width="726" height="172" fill="black">
<rect fill="white" width="726" height="172"/>
<path d="M93.8068 57C93.3977 51.8864 91.4801 47.8977 88.054 45.0341C84.679 42.1704 79.5398 40.7386 72.6364 40.7386C68.2386 40.7386 64.6335 41.2756 61.821 42.3494C59.0597 43.3722 57.0142 44.7784 55.6847 46.5682C54.3551 48.3579 53.6648 50.4034 53.6136 52.7045C53.5114 54.5966 53.8438 56.3097 54.6108 57.8438C55.429 59.3267 56.7074 60.6818 58.446 61.9091C60.1847 63.0852 62.4091 64.1591 65.1193 65.1307C67.8295 66.1023 71.0511 66.9716 74.7841 67.7386L87.6705 70.5C96.3636 72.3409 103.804 74.7699 109.991 77.7869C116.179 80.804 121.241 84.358 125.179 88.4489C129.116 92.4886 132.006 97.0398 133.847 102.102C135.739 107.165 136.71 112.687 136.761 118.67C136.71 129 134.128 137.744 129.014 144.903C123.901 152.062 116.588 157.509 107.077 161.241C97.6165 164.974 86.2386 166.841 72.9432 166.841C59.2898 166.841 47.375 164.821 37.1989 160.781C27.0739 156.741 19.1989 150.528 13.5739 142.142C8 133.705 5.1875 122.915 5.13636 109.773H45.6364C45.892 114.58 47.0938 118.619 49.2415 121.892C51.3892 125.165 54.4063 127.645 58.2926 129.332C62.2301 131.02 66.9091 131.864 72.3295 131.864C76.8807 131.864 80.6903 131.301 83.7585 130.176C86.8267 129.051 89.1534 127.491 90.7386 125.497C92.3239 123.503 93.142 121.227 93.1932 118.67C93.142 116.267 92.3494 114.17 90.8153 112.381C89.3324 110.54 86.8778 108.903 83.4517 107.472C80.0256 105.989 75.3977 104.608 69.5682 103.33L53.9205 99.9545C40.0114 96.9375 29.0426 91.9006 21.0142 84.8438C13.0369 77.7358 9.07386 68.0455 9.125 55.7727C9.07386 45.8011 11.733 37.0824 17.1023 29.6165C22.5227 22.0994 30.0142 16.2443 39.5767 12.0511C49.1903 7.85795 60.2102 5.76136 72.6364 5.76136C85.3182 5.76136 96.2869 7.88352 105.543 12.1278C114.798 16.3722 121.932 22.3551 126.943 30.0767C132.006 37.7472 134.563 46.7216 134.614 57H93.8068ZM152.984 165V7.90909H195.632V71.4205H197.78L245.03 7.90909H294.734L241.655 77.8636L295.962 165H245.03L209.746 106.091L195.632 124.5V165H152.984ZM348.197 165H302.175L354.027 7.90909H412.322L464.175 165H418.152L383.788 51.1705H382.561L348.197 165ZM339.607 103.023H426.129V134.932H339.607V103.023ZM455.181 42.2727V7.90909H591.715V42.2727H544.465V165H502.431V42.2727H455.181ZM607.766 165V7.90909H720.982V42.2727H650.413V69.2727H715.152V103.636H650.413V130.636H720.675V165H607.766Z"/>
</mask>
<path d="M93.8068 57C93.3977 51.8864 91.4801 47.8977 88.054 45.0341C84.679 42.1704 79.5398 40.7386 72.6364 40.7386C68.2386 40.7386 64.6335 41.2756 61.821 42.3494C59.0597 43.3722 57.0142 44.7784 55.6847 46.5682C54.3551 48.3579 53.6648 50.4034 53.6136 52.7045C53.5114 54.5966 53.8438 56.3097 54.6108 57.8438C55.429 59.3267 56.7074 60.6818 58.446 61.9091C60.1847 63.0852 62.4091 64.1591 65.1193 65.1307C67.8295 66.1023 71.0511 66.9716 74.7841 67.7386L87.6705 70.5C96.3636 72.3409 103.804 74.7699 109.991 77.7869C116.179 80.804 121.241 84.358 125.179 88.4489C129.116 92.4886 132.006 97.0398 133.847 102.102C135.739 107.165 136.71 112.687 136.761 118.67C136.71 129 134.128 137.744 129.014 144.903C123.901 152.062 116.588 157.509 107.077 161.241C97.6165 164.974 86.2386 166.841 72.9432 166.841C59.2898 166.841 47.375 164.821 37.1989 160.781C27.0739 156.741 19.1989 150.528 13.5739 142.142C8 133.705 5.1875 122.915 5.13636 109.773H45.6364C45.892 114.58 47.0938 118.619 49.2415 121.892C51.3892 125.165 54.4063 127.645 58.2926 129.332C62.2301 131.02 66.9091 131.864 72.3295 131.864C76.8807 131.864 80.6903 131.301 83.7585 130.176C86.8267 129.051 89.1534 127.491 90.7386 125.497C92.3239 123.503 93.142 121.227 93.1932 118.67C93.142 116.267 92.3494 114.17 90.8153 112.381C89.3324 110.54 86.8778 108.903 83.4517 107.472C80.0256 105.989 75.3977 104.608 69.5682 103.33L53.9205 99.9545C40.0114 96.9375 29.0426 91.9006 21.0142 84.8438C13.0369 77.7358 9.07386 68.0455 9.125 55.7727C9.07386 45.8011 11.733 37.0824 17.1023 29.6165C22.5227 22.0994 30.0142 16.2443 39.5767 12.0511C49.1903 7.85795 60.2102 5.76136 72.6364 5.76136C85.3182 5.76136 96.2869 7.88352 105.543 12.1278C114.798 16.3722 121.932 22.3551 126.943 30.0767C132.006 37.7472 134.563 46.7216 134.614 57H93.8068ZM152.984 165V7.90909H195.632V71.4205H197.78L245.03 7.90909H294.734L241.655 77.8636L295.962 165H245.03L209.746 106.091L195.632 124.5V165H152.984ZM348.197 165H302.175L354.027 7.90909H412.322L464.175 165H418.152L383.788 51.1705H382.561L348.197 165ZM339.607 103.023H426.129V134.932H339.607V103.023ZM455.181 42.2727V7.90909H591.715V42.2727H544.465V165H502.431V42.2727H455.181ZM607.766 165V7.90909H720.982V42.2727H650.413V69.2727H715.152V103.636H650.413V130.636H720.675V165H607.766Z" fill="#33FF77"/>
<path d="M93.8068 57L88.8227 57.3987L89.1908 62H93.8068V57ZM88.054 45.0341L84.8191 48.8466L84.8332 48.8586L84.8474 48.8705L88.054 45.0341ZM61.821 42.3494L63.5576 47.0382L63.5811 47.0295L63.6045 47.0205L61.821 42.3494ZM55.6847 46.5682L51.6709 43.5865L51.6709 43.5866L55.6847 46.5682ZM53.6136 52.7045L58.6063 52.9744L58.6106 52.8951L58.6124 52.8156L53.6136 52.7045ZM54.6108 57.8438L50.1387 60.0798L50.184 60.1704L50.2329 60.2591L54.6108 57.8438ZM58.446 61.9091L55.5626 65.9939L55.6033 66.0226L55.6445 66.0505L58.446 61.9091ZM74.7841 67.7386L75.8317 62.8496L75.8111 62.8452L75.7905 62.841L74.7841 67.7386ZM87.6705 70.5L86.6228 75.389L86.6346 75.3915L87.6705 70.5ZM109.991 77.7869L107.8 82.2811L109.991 77.7869ZM125.179 88.4489L121.577 91.9162L121.587 91.9275L121.598 91.9388L125.179 88.4489ZM133.847 102.102L129.148 103.811L129.155 103.832L129.163 103.853L133.847 102.102ZM136.761 118.67L141.761 118.695L141.761 118.661L141.761 118.628L136.761 118.67ZM129.014 144.903L133.083 147.81L133.083 147.81L129.014 144.903ZM107.077 161.241L105.25 156.587L105.241 156.59L107.077 161.241ZM37.1989 160.781L35.346 165.425L35.354 165.428L37.1989 160.781ZM13.5739 142.142L9.40198 144.898L9.41165 144.913L9.42142 144.927L13.5739 142.142ZM5.13636 109.773V104.773H0.116871L0.136402 109.792L5.13636 109.773ZM45.6364 109.773L50.6293 109.507L50.3775 104.773H45.6364V109.773ZM49.2415 121.892L45.0612 124.635L45.0612 124.635L49.2415 121.892ZM58.2926 129.332L56.3012 133.919L56.3121 133.923L56.323 133.928L58.2926 129.332ZM83.7585 130.176L85.4798 134.871L85.4798 134.871L83.7585 130.176ZM90.7386 125.497L94.6528 128.608L94.6528 128.608L90.7386 125.497ZM93.1932 118.67L98.1922 118.77L98.1942 118.667L98.1921 118.564L93.1932 118.67ZM90.8153 112.381L86.9216 115.517L86.9694 115.577L87.0191 115.635L90.8153 112.381ZM83.4517 107.472L81.4656 112.06L81.4946 112.073L81.5237 112.085L83.4517 107.472ZM69.5682 103.33L70.6392 98.4456L70.6308 98.4438L70.6224 98.4419L69.5682 103.33ZM53.9205 99.9545L52.8605 104.841L52.8663 104.842L53.9205 99.9545ZM21.0142 84.8438L17.6879 88.5768L17.7005 88.5881L17.7132 88.5992L21.0142 84.8438ZM9.125 55.7727L14.125 55.7936L14.1251 55.7703L14.1249 55.7471L9.125 55.7727ZM17.1023 29.6165L13.0467 26.692L13.043 26.6972L17.1023 29.6165ZM39.5767 12.0511L37.5777 7.4681L37.5688 7.47203L39.5767 12.0511ZM105.543 12.1278L103.458 16.6728L103.458 16.6728L105.543 12.1278ZM126.943 30.0767L122.749 32.7987L122.76 32.8149L122.77 32.8309L126.943 30.0767ZM134.614 57V62H139.639L139.614 56.9751L134.614 57ZM93.8068 57L98.7909 56.6013C98.2921 50.3663 95.8722 45.0522 91.2605 41.1977L88.054 45.0341L84.8474 48.8705C87.088 50.7432 88.5034 53.4064 88.8227 57.3987L93.8068 57ZM88.054 45.0341L91.2889 41.2215C86.6244 37.2638 80.0945 35.7386 72.6364 35.7386V40.7386V45.7386C78.985 45.7386 82.7336 47.0771 84.8191 48.8466L88.054 45.0341ZM72.6364 40.7386V35.7386C67.8849 35.7386 63.6176 36.3114 60.0375 37.6783L61.821 42.3494L63.6045 47.0205C65.6494 46.2397 68.5924 45.7386 72.6364 45.7386V40.7386ZM61.821 42.3494L60.0844 37.6607C56.7005 38.914 53.7364 40.8061 51.6709 43.5865L55.6847 46.5682L59.6984 49.5498C60.292 48.7507 61.4188 47.8303 63.5576 47.0382L61.821 42.3494ZM55.6847 46.5682L51.6709 43.5866C49.7026 46.2363 48.6882 49.2923 48.6149 52.5935L53.6136 52.7045L58.6124 52.8156C58.6413 51.5145 59.0076 50.4796 59.6984 49.5498L55.6847 46.5682ZM53.6136 52.7045L48.6209 52.4347C48.4769 55.1001 48.944 57.6905 50.1387 60.0798L54.6108 57.8438L59.0829 55.6077C58.7435 54.9288 58.5459 54.0931 58.6063 52.9744L53.6136 52.7045ZM54.6108 57.8438L50.2329 60.2591C51.498 62.5521 53.3602 64.4393 55.5626 65.9939L58.446 61.9091L61.3294 57.8242C60.0545 56.9243 59.36 56.1013 58.9887 55.4284L54.6108 57.8438ZM58.446 61.9091L55.6445 66.0505C57.8306 67.5294 60.4628 68.7729 63.432 69.8374L65.1193 65.1307L66.8066 60.424C64.3554 59.5453 62.5387 58.6411 61.2476 57.7677L58.446 61.9091ZM65.1193 65.1307L63.432 69.8374C66.4222 70.9093 69.8827 71.836 73.7777 72.6363L74.7841 67.7386L75.7905 62.841C72.2196 62.1072 69.2369 61.2952 66.8066 60.424L65.1193 65.1307ZM74.7841 67.7386L73.7364 72.6276L86.6228 75.389L87.6705 70.5L88.7181 65.611L75.8317 62.8496L74.7841 67.7386ZM87.6705 70.5L86.6346 75.3915C95.037 77.1709 102.068 79.4864 107.8 82.2811L109.991 77.7869L112.183 73.2927C105.54 70.0534 97.6902 67.511 88.7063 65.6085L87.6705 70.5ZM109.991 77.7869L107.8 82.2811C113.569 85.0942 118.122 88.3267 121.577 91.9162L125.179 88.4489L128.781 84.9815C124.361 80.3893 118.789 76.5138 112.183 73.2927L109.991 77.7869ZM125.179 88.4489L121.598 91.9388C125.065 95.4953 127.56 99.4462 129.148 103.811L133.847 102.102L138.546 100.394C136.451 94.6333 133.168 89.4819 128.76 84.9589L125.179 88.4489ZM133.847 102.102L129.163 103.853C130.83 108.313 131.715 113.251 131.762 118.713L136.761 118.67L141.761 118.628C141.706 112.124 140.647 106.016 138.53 100.352L133.847 102.102ZM136.761 118.67L131.761 118.646C131.714 128.127 129.359 135.818 124.946 141.997L129.014 144.903L133.083 147.81C138.897 139.67 141.706 129.873 141.761 118.695L136.761 118.67ZM129.014 144.903L124.946 141.997C120.48 148.248 114.009 153.149 105.25 156.587L107.077 161.241L108.903 165.896C119.167 161.868 127.321 155.877 133.083 147.81L129.014 144.903ZM107.077 161.241L105.241 156.59C96.5148 160.034 85.7937 161.841 72.9432 161.841V166.841V171.841C86.6836 171.841 98.7182 169.915 108.912 165.892L107.077 161.241ZM72.9432 166.841V161.841C59.771 161.841 48.5074 159.891 39.0437 156.134L37.1989 160.781L35.354 165.428C46.2426 169.751 58.8086 171.841 72.9432 171.841V166.841ZM37.1989 160.781L39.0518 156.137C29.785 152.44 22.7446 146.839 17.7263 139.357L13.5739 142.142L9.42142 144.927C15.6531 154.218 24.3628 161.043 35.346 165.425L37.1989 160.781ZM13.5739 142.142L17.7457 139.386C12.8476 131.971 10.1848 122.21 10.1363 109.753L5.13636 109.773L0.136402 109.792C0.190205 123.62 3.15236 135.438 9.40198 144.898L13.5739 142.142ZM5.13636 109.773V114.773H45.6364V109.773V104.773H5.13636V109.773ZM45.6364 109.773L40.6434 110.038C40.9354 115.527 42.3283 120.471 45.0612 124.635L49.2415 121.892L53.4217 119.149C51.8592 116.768 50.8487 113.632 50.6293 109.507L45.6364 109.773ZM49.2415 121.892L45.0612 124.635C47.7876 128.79 51.5981 131.877 56.3012 133.919L58.2926 129.332L60.284 124.746C57.2144 123.413 54.9908 121.54 53.4217 119.149L49.2415 121.892ZM58.2926 129.332L56.323 133.928C61.0244 135.943 66.4051 136.864 72.3295 136.864V131.864V126.864C67.4131 126.864 63.4358 126.097 60.2622 124.737L58.2926 129.332ZM72.3295 131.864V136.864C77.2545 136.864 81.6903 136.26 85.4798 134.871L83.7585 130.176L82.0373 125.482C79.6904 126.342 76.5068 126.864 72.3295 126.864V131.864ZM83.7585 130.176L85.4798 134.871C89.1704 133.517 92.3553 131.499 94.6528 128.608L90.7386 125.497L86.8245 122.386C85.9515 123.484 84.483 124.585 82.0373 125.482L83.7585 130.176ZM90.7386 125.497L94.6528 128.608C96.9226 125.753 98.1192 122.418 98.1922 118.77L93.1932 118.67L88.1942 118.57C88.1649 120.036 87.7251 121.253 86.8245 122.386L90.7386 125.497ZM93.1932 118.67L98.1921 118.564C98.1168 115.029 96.9148 111.814 94.6116 109.127L90.8153 112.381L87.0191 115.635C87.7841 116.527 88.1673 117.505 88.1943 118.777L93.1932 118.67ZM90.8153 112.381L94.7091 109.244C92.4883 106.487 89.1773 104.445 85.3797 102.858L83.4517 107.472L81.5237 112.085C84.5783 113.361 86.1765 114.592 86.9216 115.517L90.8153 112.381ZM83.4517 107.472L85.4378 102.883C81.5959 101.22 76.6203 99.7572 70.6392 98.4456L69.5682 103.33L68.4971 108.213C74.1752 109.459 78.4553 110.757 81.4656 112.06L83.4517 107.472ZM69.5682 103.33L70.6224 98.4419L54.9746 95.0669L53.9205 99.9545L52.8663 104.842L68.514 108.217L69.5682 103.33ZM53.9205 99.9545L54.9804 95.0682C41.6367 92.1738 31.5278 87.4281 24.3152 81.0883L21.0142 84.8438L17.7132 88.5992C26.5574 96.3731 38.3861 101.701 52.8605 104.841L53.9205 99.9545ZM21.0142 84.8438L24.3405 81.1107C17.5977 75.1027 14.0788 66.8688 14.125 55.7936L9.125 55.7727L4.12504 55.7519C4.06892 69.2221 8.47614 80.3689 17.6879 88.5768L21.0142 84.8438ZM9.125 55.7727L14.1249 55.7471C14.0787 46.7378 16.4617 39.0707 21.1615 32.5358L17.1023 29.6165L13.043 26.6972C7.00417 35.094 4.06899 44.8645 4.12507 55.7984L9.125 55.7727ZM17.1023 29.6165L21.1579 32.5409C25.9921 25.8368 32.7343 20.5111 41.5847 16.6302L39.5767 12.0511L37.5688 7.47203C27.2941 11.9775 19.0534 18.362 13.0467 26.692L17.1023 29.6165ZM39.5767 12.0511L41.5757 16.6342C50.4533 12.762 60.773 10.7614 72.6364 10.7614V5.76136V0.761358C59.6475 0.761358 47.9274 2.95391 37.5777 7.46811L39.5767 12.0511ZM72.6364 5.76136V10.7614C84.7705 10.7614 94.9966 12.7925 103.458 16.6728L105.543 12.1278L107.627 7.58291C97.5773 2.97458 85.8658 0.761358 72.6364 0.761358V5.76136ZM105.543 12.1278L103.458 16.6728C111.947 20.5652 118.308 25.9556 122.749 32.7987L126.943 30.0767L131.137 27.3547C125.556 18.7546 117.65 12.1791 107.627 7.58291L105.543 12.1278ZM126.943 30.0767L122.77 32.8309C127.236 39.5973 129.567 47.5983 129.614 57.0249L134.614 57L139.614 56.9751C139.558 45.8448 136.775 35.897 131.116 27.3225L126.943 30.0767ZM134.614 57V52H93.8068V57V62H134.614V57ZM152.984 165H147.984V170H152.984V165ZM152.984 7.90909V2.90909H147.984V7.90909H152.984ZM195.632 7.90909H200.632V2.90909H195.632V7.90909ZM195.632 71.4205H190.632V76.4205H195.632V71.4205ZM197.78 71.4205V76.4205H200.292L201.791 74.4049L197.78 71.4205ZM245.03 7.90909V2.90909H242.518L241.018 4.92461L245.03 7.90909ZM294.734 7.90909L298.718 10.9314L304.805 2.90909H294.734V7.90909ZM241.655 77.8636L237.672 74.8413L235.59 77.5852L237.411 80.5083L241.655 77.8636ZM295.962 165V170H304.969L300.205 162.355L295.962 165ZM245.03 165L240.74 167.569L242.196 170H245.03V165ZM209.746 106.091L214.035 103.522L210.254 97.2095L205.778 103.049L209.746 106.091ZM195.632 124.5L191.664 121.458L190.632 122.804V124.5H195.632ZM195.632 165V170H200.632V165H195.632ZM152.984 165H157.984V7.90909H152.984H147.984V165H152.984ZM152.984 7.90909V12.9091H195.632V7.90909V2.90909H152.984V7.90909ZM195.632 7.90909H190.632V71.4205H195.632H200.632V7.90909H195.632ZM195.632 71.4205V76.4205H197.78V71.4205V66.4205H195.632V71.4205ZM197.78 71.4205L201.791 74.4049L249.041 10.8936L245.03 7.90909L241.018 4.92461L193.768 68.436L197.78 71.4205ZM245.03 7.90909V12.9091H294.734V7.90909V2.90909H245.03V7.90909ZM294.734 7.90909L290.751 4.88677L237.672 74.8413L241.655 77.8636L245.638 80.886L298.718 10.9314L294.734 7.90909ZM241.655 77.8636L237.411 80.5083L291.718 167.645L295.962 165L300.205 162.355L245.898 75.219L241.655 77.8636ZM295.962 165V160H245.03V165V170H295.962V165ZM245.03 165L249.319 162.431L214.035 103.522L209.746 106.091L205.456 108.66L240.74 167.569L245.03 165ZM209.746 106.091L205.778 103.049L191.664 121.458L195.632 124.5L199.6 127.542L213.714 109.133L209.746 106.091ZM195.632 124.5H190.632V165H195.632H200.632V124.5H195.632ZM195.632 165V160H152.984V165V170H195.632V165ZM348.197 165V170H351.911L352.984 166.445L348.197 165ZM302.175 165L297.427 163.433L295.259 170H302.175V165ZM354.027 7.90909V2.90909H350.412L349.279 6.34186L354.027 7.90909ZM412.322 7.90909L417.07 6.34186L415.937 2.90909H412.322V7.90909ZM464.175 165V170H471.09L468.923 163.433L464.175 165ZM418.152 165L413.365 166.445L414.439 170H418.152V165ZM383.788 51.1705L388.575 49.7254L387.502 46.1705H383.788V51.1705ZM382.561 51.1705V46.1705H378.848L377.774 49.7254L382.561 51.1705ZM339.607 103.023V98.0227H334.607V103.023H339.607ZM426.129 103.023H431.129V98.0227H426.129V103.023ZM426.129 134.932V139.932H431.129V134.932H426.129ZM339.607 134.932H334.607V139.932H339.607V134.932ZM348.197 165V160H302.175V165V170H348.197V165ZM302.175 165L306.923 166.567L358.775 9.47631L354.027 7.90909L349.279 6.34186L297.427 163.433L302.175 165ZM354.027 7.90909V12.9091H412.322V7.90909V2.90909H354.027V7.90909ZM412.322 7.90909L407.574 9.47631L459.427 166.567L464.175 165L468.923 163.433L417.07 6.34186L412.322 7.90909ZM464.175 165V160H418.152V165V170H464.175V165ZM418.152 165L422.939 163.555L388.575 49.7254L383.788 51.1705L379.002 52.6155L413.365 166.445L418.152 165ZM383.788 51.1705V46.1705H382.561V51.1705V56.1705H383.788V51.1705ZM382.561 51.1705L377.774 49.7254L343.411 163.555L348.197 165L352.984 166.445L387.348 52.6155L382.561 51.1705ZM339.607 103.023V108.023H426.129V103.023V98.0227H339.607V103.023ZM426.129 103.023H421.129V134.932H426.129H431.129V103.023H426.129ZM426.129 134.932V129.932H339.607V134.932V139.932H426.129V134.932ZM339.607 134.932H344.607V103.023H339.607H334.607V134.932H339.607ZM455.181 42.2727H450.181V47.2727H455.181V42.2727ZM455.181 7.90909V2.90909H450.181V7.90909H455.181ZM591.715 7.90909H596.715V2.90909H591.715V7.90909ZM591.715 42.2727V47.2727H596.715V42.2727H591.715ZM544.465 42.2727V37.2727H539.465V42.2727H544.465ZM544.465 165V170H549.465V165H544.465ZM502.431 165H497.431V170H502.431V165ZM502.431 42.2727H507.431V37.2727H502.431V42.2727ZM455.181 42.2727H460.181V7.90909H455.181H450.181V42.2727H455.181ZM455.181 7.90909V12.9091H591.715V7.90909V2.90909H455.181V7.90909ZM591.715 7.90909H586.715V42.2727H591.715H596.715V7.90909H591.715ZM591.715 42.2727V37.2727H544.465V42.2727V47.2727H591.715V42.2727ZM544.465 42.2727H539.465V165H544.465H549.465V42.2727H544.465ZM544.465 165V160H502.431V165V170H544.465V165ZM502.431 165H507.431V42.2727H502.431H497.431V165H502.431ZM502.431 42.2727V37.2727H455.181V42.2727V47.2727H502.431V42.2727ZM607.766 165H602.766V170H607.766V165ZM607.766 7.90909V2.90909H602.766V7.90909H607.766ZM720.982 7.90909H725.982V2.90909H720.982V7.90909ZM720.982 42.2727V47.2727H725.982V42.2727H720.982ZM650.413 42.2727V37.2727H645.413V42.2727H650.413ZM650.413 69.2727H645.413V74.2727H650.413V69.2727ZM715.152 69.2727H720.152V64.2727H715.152V69.2727ZM715.152 103.636V108.636H720.152V103.636H715.152ZM650.413 103.636V98.6364H645.413V103.636H650.413ZM650.413 130.636H645.413V135.636H650.413V130.636ZM720.675 130.636H725.675V125.636H720.675V130.636ZM720.675 165V170H725.675V165H720.675ZM607.766 165H612.766V7.90909H607.766H602.766V165H607.766ZM607.766 7.90909V12.9091H720.982V7.90909V2.90909H607.766V7.90909ZM720.982 7.90909H715.982V42.2727H720.982H725.982V7.90909H720.982ZM720.982 42.2727V37.2727H650.413V42.2727V47.2727H720.982V42.2727ZM650.413 42.2727H645.413V69.2727H650.413H655.413V42.2727H650.413ZM650.413 69.2727V74.2727H715.152V69.2727V64.2727H650.413V69.2727ZM715.152 69.2727H710.152V103.636H715.152H720.152V69.2727H715.152ZM715.152 103.636V98.6364H650.413V103.636V108.636H715.152V103.636ZM650.413 103.636H645.413V130.636H650.413H655.413V103.636H650.413ZM650.413 130.636V135.636H720.675V130.636V125.636H650.413V130.636ZM720.675 130.636H715.675V165H720.675H725.675V130.636H720.675ZM720.675 165V160H607.766V165V170H720.675V165Z" fill="black" mask="url(#path-1-outside-1_96_100)"/>
</svg>
