<svg width="701" height="173" viewBox="0 0 701 173" fill="none" xmlns="http://www.w3.org/2000/svg">
<mask id="path-1-outside-1_95_93" maskUnits="userSpaceOnUse" x="0" y="0" width="701" height="173" fill="black">
<rect fill="white" width="701" height="173"/>
<path d="M93.8068 57C93.3977 51.8864 91.4801 47.8977 88.054 45.0341C84.679 42.1704 79.5398 40.7386 72.6364 40.7386C68.2386 40.7386 64.6335 41.2756 61.821 42.3494C59.0597 43.3722 57.0142 44.7784 55.6847 46.5682C54.3551 48.3579 53.6648 50.4034 53.6136 52.7045C53.5114 54.5966 53.8438 56.3097 54.6108 57.8438C55.429 59.3267 56.7074 60.6818 58.446 61.9091C60.1847 63.0852 62.4091 64.1591 65.1193 65.1307C67.8295 66.1023 71.0511 66.9716 74.7841 67.7386L87.6705 70.5C96.3636 72.3409 103.804 74.7699 109.991 77.7869C116.179 80.804 121.241 84.358 125.179 88.4489C129.116 92.4886 132.006 97.0398 133.847 102.102C135.739 107.165 136.71 112.687 136.761 118.67C136.71 129 134.128 137.744 129.014 144.903C123.901 152.062 116.588 157.509 107.077 161.241C97.6165 164.974 86.2386 166.841 72.9432 166.841C59.2898 166.841 47.375 164.821 37.1989 160.781C27.0739 156.741 19.1989 150.528 13.5739 142.142C8 133.705 5.1875 122.915 5.13636 109.773H45.6364C45.892 114.58 47.0938 118.619 49.2415 121.892C51.3892 125.165 54.4063 127.645 58.2926 129.332C62.2301 131.02 66.9091 131.864 72.3295 131.864C76.8807 131.864 80.6903 131.301 83.7585 130.176C86.8267 129.051 89.1534 127.491 90.7386 125.497C92.3239 123.503 93.142 121.227 93.1932 118.67C93.142 116.267 92.3494 114.17 90.8153 112.381C89.3324 110.54 86.8778 108.903 83.4517 107.472C80.0256 105.989 75.3977 104.608 69.5682 103.33L53.9205 99.9545C40.0114 96.9375 29.0426 91.9006 21.0142 84.8438C13.0369 77.7358 9.07386 68.0455 9.125 55.7727C9.07386 45.8011 11.733 37.0824 17.1023 29.6165C22.5227 22.0994 30.0142 16.2443 39.5767 12.0511C49.1903 7.85795 60.2102 5.76136 72.6364 5.76136C85.3182 5.76136 96.2869 7.88352 105.543 12.1278C114.798 16.3722 121.932 22.3551 126.943 30.0767C132.006 37.7472 134.563 46.7216 134.614 57H93.8068ZM288.905 7.90909V165H253.314L196.553 82.4659H195.632V165H152.984V7.90909H189.189L245.03 90.1364H246.257V7.90909H288.905ZM461.26 86.4545C461.26 103.943 457.859 118.696 451.058 130.713C444.257 142.679 435.078 151.756 423.521 157.943C411.964 164.08 399.078 167.148 384.862 167.148C370.544 167.148 357.607 164.054 346.05 157.866C334.544 151.628 325.391 142.526 318.589 130.56C311.839 118.543 308.464 103.841 308.464 86.4545C308.464 68.9659 311.839 54.2386 318.589 42.2727C325.391 30.2557 334.544 21.179 346.05 15.0426C357.607 8.85511 370.544 5.76136 384.862 5.76136C399.078 5.76136 411.964 8.85511 423.521 15.0426C435.078 21.179 444.257 30.2557 451.058 42.2727C457.859 54.2386 461.26 68.9659 461.26 86.4545ZM417.385 86.4545C417.385 77.0455 416.132 69.1193 413.626 62.6761C411.172 56.1818 407.516 51.2727 402.658 47.9489C397.851 44.5739 391.919 42.8864 384.862 42.8864C377.805 42.8864 371.848 44.5739 366.99 47.9489C362.183 51.2727 358.527 56.1818 356.021 62.6761C353.567 69.1193 352.339 77.0455 352.339 86.4545C352.339 95.8636 353.567 103.815 356.021 110.31C358.527 116.753 362.183 121.662 366.99 125.037C371.848 128.361 377.805 130.023 384.862 130.023C391.919 130.023 397.851 128.361 402.658 125.037C407.516 121.662 411.172 116.753 413.626 110.31C416.132 103.815 417.385 95.8636 417.385 86.4545ZM510.964 165L464.635 7.90909H512.192L533.669 104.557H534.896L560.362 7.90909H597.794L623.26 104.864H624.487L645.964 7.90909H693.521L647.192 165H606.385L579.692 77.25H578.464L551.771 165H510.964Z"/>
</mask>
<path d="M93.8068 57C93.3977 51.8864 91.4801 47.8977 88.054 45.0341C84.679 42.1704 79.5398 40.7386 72.6364 40.7386C68.2386 40.7386 64.6335 41.2756 61.821 42.3494C59.0597 43.3722 57.0142 44.7784 55.6847 46.5682C54.3551 48.3579 53.6648 50.4034 53.6136 52.7045C53.5114 54.5966 53.8438 56.3097 54.6108 57.8438C55.429 59.3267 56.7074 60.6818 58.446 61.9091C60.1847 63.0852 62.4091 64.1591 65.1193 65.1307C67.8295 66.1023 71.0511 66.9716 74.7841 67.7386L87.6705 70.5C96.3636 72.3409 103.804 74.7699 109.991 77.7869C116.179 80.804 121.241 84.358 125.179 88.4489C129.116 92.4886 132.006 97.0398 133.847 102.102C135.739 107.165 136.71 112.687 136.761 118.67C136.71 129 134.128 137.744 129.014 144.903C123.901 152.062 116.588 157.509 107.077 161.241C97.6165 164.974 86.2386 166.841 72.9432 166.841C59.2898 166.841 47.375 164.821 37.1989 160.781C27.0739 156.741 19.1989 150.528 13.5739 142.142C8 133.705 5.1875 122.915 5.13636 109.773H45.6364C45.892 114.58 47.0938 118.619 49.2415 121.892C51.3892 125.165 54.4063 127.645 58.2926 129.332C62.2301 131.02 66.9091 131.864 72.3295 131.864C76.8807 131.864 80.6903 131.301 83.7585 130.176C86.8267 129.051 89.1534 127.491 90.7386 125.497C92.3239 123.503 93.142 121.227 93.1932 118.67C93.142 116.267 92.3494 114.17 90.8153 112.381C89.3324 110.54 86.8778 108.903 83.4517 107.472C80.0256 105.989 75.3977 104.608 69.5682 103.33L53.9205 99.9545C40.0114 96.9375 29.0426 91.9006 21.0142 84.8438C13.0369 77.7358 9.07386 68.0455 9.125 55.7727C9.07386 45.8011 11.733 37.0824 17.1023 29.6165C22.5227 22.0994 30.0142 16.2443 39.5767 12.0511C49.1903 7.85795 60.2102 5.76136 72.6364 5.76136C85.3182 5.76136 96.2869 7.88352 105.543 12.1278C114.798 16.3722 121.932 22.3551 126.943 30.0767C132.006 37.7472 134.563 46.7216 134.614 57H93.8068ZM288.905 7.90909V165H253.314L196.553 82.4659H195.632V165H152.984V7.90909H189.189L245.03 90.1364H246.257V7.90909H288.905ZM461.26 86.4545C461.26 103.943 457.859 118.696 451.058 130.713C444.257 142.679 435.078 151.756 423.521 157.943C411.964 164.08 399.078 167.148 384.862 167.148C370.544 167.148 357.607 164.054 346.05 157.866C334.544 151.628 325.391 142.526 318.589 130.56C311.839 118.543 308.464 103.841 308.464 86.4545C308.464 68.9659 311.839 54.2386 318.589 42.2727C325.391 30.2557 334.544 21.179 346.05 15.0426C357.607 8.85511 370.544 5.76136 384.862 5.76136C399.078 5.76136 411.964 8.85511 423.521 15.0426C435.078 21.179 444.257 30.2557 451.058 42.2727C457.859 54.2386 461.26 68.9659 461.26 86.4545ZM417.385 86.4545C417.385 77.0455 416.132 69.1193 413.626 62.6761C411.172 56.1818 407.516 51.2727 402.658 47.9489C397.851 44.5739 391.919 42.8864 384.862 42.8864C377.805 42.8864 371.848 44.5739 366.99 47.9489C362.183 51.2727 358.527 56.1818 356.021 62.6761C353.567 69.1193 352.339 77.0455 352.339 86.4545C352.339 95.8636 353.567 103.815 356.021 110.31C358.527 116.753 362.183 121.662 366.99 125.037C371.848 128.361 377.805 130.023 384.862 130.023C391.919 130.023 397.851 128.361 402.658 125.037C407.516 121.662 411.172 116.753 413.626 110.31C416.132 103.815 417.385 95.8636 417.385 86.4545ZM510.964 165L464.635 7.90909H512.192L533.669 104.557H534.896L560.362 7.90909H597.794L623.26 104.864H624.487L645.964 7.90909H693.521L647.192 165H606.385L579.692 77.25H578.464L551.771 165H510.964Z" fill="#FFE77C"/>
<path d="M93.8068 57L88.8227 57.3987L89.1908 62H93.8068V57ZM88.054 45.0341L84.8191 48.8466L84.8332 48.8586L84.8474 48.8705L88.054 45.0341ZM61.821 42.3494L63.5576 47.0382L63.5811 47.0295L63.6045 47.0205L61.821 42.3494ZM55.6847 46.5682L51.6709 43.5865L51.6709 43.5866L55.6847 46.5682ZM53.6136 52.7045L58.6063 52.9744L58.6106 52.8951L58.6124 52.8156L53.6136 52.7045ZM54.6108 57.8438L50.1387 60.0798L50.184 60.1704L50.2329 60.2591L54.6108 57.8438ZM58.446 61.9091L55.5626 65.9939L55.6033 66.0226L55.6445 66.0505L58.446 61.9091ZM74.7841 67.7386L75.8317 62.8496L75.8111 62.8452L75.7905 62.841L74.7841 67.7386ZM87.6705 70.5L86.6228 75.389L86.6346 75.3915L87.6705 70.5ZM109.991 77.7869L107.8 82.2811L109.991 77.7869ZM125.179 88.4489L121.577 91.9162L121.587 91.9275L121.598 91.9388L125.179 88.4489ZM133.847 102.102L129.148 103.811L129.155 103.832L129.163 103.853L133.847 102.102ZM136.761 118.67L141.761 118.695L141.761 118.661L141.761 118.628L136.761 118.67ZM129.014 144.903L133.083 147.81L133.083 147.81L129.014 144.903ZM107.077 161.241L105.25 156.587L105.241 156.59L107.077 161.241ZM37.1989 160.781L35.346 165.425L35.354 165.428L37.1989 160.781ZM13.5739 142.142L9.40198 144.898L9.41165 144.913L9.42142 144.927L13.5739 142.142ZM5.13636 109.773V104.773H0.116871L0.136402 109.792L5.13636 109.773ZM45.6364 109.773L50.6293 109.507L50.3775 104.773H45.6364V109.773ZM49.2415 121.892L45.0612 124.635L45.0612 124.635L49.2415 121.892ZM58.2926 129.332L56.3012 133.919L56.3121 133.923L56.323 133.928L58.2926 129.332ZM83.7585 130.176L85.4798 134.871L85.4798 134.871L83.7585 130.176ZM90.7386 125.497L94.6528 128.608L94.6528 128.608L90.7386 125.497ZM93.1932 118.67L98.1922 118.77L98.1942 118.667L98.1921 118.564L93.1932 118.67ZM90.8153 112.381L86.9216 115.517L86.9694 115.577L87.0191 115.635L90.8153 112.381ZM83.4517 107.472L81.4656 112.06L81.4946 112.073L81.5237 112.085L83.4517 107.472ZM69.5682 103.33L70.6392 98.4456L70.6308 98.4438L70.6224 98.4419L69.5682 103.33ZM53.9205 99.9545L52.8605 104.841L52.8663 104.842L53.9205 99.9545ZM21.0142 84.8438L17.6879 88.5768L17.7005 88.5881L17.7132 88.5992L21.0142 84.8438ZM9.125 55.7727L14.125 55.7936L14.1251 55.7703L14.1249 55.7471L9.125 55.7727ZM17.1023 29.6165L13.0467 26.692L13.043 26.6972L17.1023 29.6165ZM39.5767 12.0511L37.5777 7.4681L37.5688 7.47203L39.5767 12.0511ZM105.543 12.1278L103.458 16.6728L103.458 16.6728L105.543 12.1278ZM126.943 30.0767L122.749 32.7987L122.76 32.8149L122.77 32.8309L126.943 30.0767ZM134.614 57V62H139.639L139.614 56.9751L134.614 57ZM93.8068 57L98.7909 56.6013C98.2921 50.3663 95.8722 45.0522 91.2605 41.1977L88.054 45.0341L84.8474 48.8705C87.088 50.7432 88.5034 53.4064 88.8227 57.3987L93.8068 57ZM88.054 45.0341L91.2889 41.2215C86.6244 37.2638 80.0945 35.7386 72.6364 35.7386V40.7386V45.7386C78.985 45.7386 82.7336 47.0771 84.8191 48.8466L88.054 45.0341ZM72.6364 40.7386V35.7386C67.8849 35.7386 63.6176 36.3114 60.0375 37.6783L61.821 42.3494L63.6045 47.0205C65.6494 46.2397 68.5924 45.7386 72.6364 45.7386V40.7386ZM61.821 42.3494L60.0844 37.6607C56.7005 38.914 53.7364 40.8061 51.6709 43.5865L55.6847 46.5682L59.6984 49.5498C60.292 48.7507 61.4188 47.8303 63.5576 47.0382L61.821 42.3494ZM55.6847 46.5682L51.6709 43.5866C49.7026 46.2363 48.6882 49.2923 48.6149 52.5935L53.6136 52.7045L58.6124 52.8156C58.6413 51.5145 59.0076 50.4796 59.6984 49.5498L55.6847 46.5682ZM53.6136 52.7045L48.6209 52.4347C48.4769 55.1001 48.944 57.6905 50.1387 60.0798L54.6108 57.8438L59.0829 55.6077C58.7435 54.9288 58.5459 54.0931 58.6063 52.9744L53.6136 52.7045ZM54.6108 57.8438L50.2329 60.2591C51.498 62.5521 53.3602 64.4393 55.5626 65.9939L58.446 61.9091L61.3294 57.8242C60.0545 56.9243 59.36 56.1013 58.9887 55.4284L54.6108 57.8438ZM58.446 61.9091L55.6445 66.0505C57.8306 67.5294 60.4628 68.7729 63.432 69.8374L65.1193 65.1307L66.8066 60.424C64.3554 59.5453 62.5387 58.6411 61.2476 57.7677L58.446 61.9091ZM65.1193 65.1307L63.432 69.8374C66.4222 70.9093 69.8827 71.836 73.7777 72.6363L74.7841 67.7386L75.7905 62.841C72.2196 62.1072 69.2369 61.2952 66.8066 60.424L65.1193 65.1307ZM74.7841 67.7386L73.7364 72.6276L86.6228 75.389L87.6705 70.5L88.7181 65.611L75.8317 62.8496L74.7841 67.7386ZM87.6705 70.5L86.6346 75.3915C95.037 77.1709 102.068 79.4864 107.8 82.2811L109.991 77.7869L112.183 73.2927C105.54 70.0534 97.6902 67.511 88.7063 65.6085L87.6705 70.5ZM109.991 77.7869L107.8 82.2811C113.569 85.0942 118.122 88.3267 121.577 91.9162L125.179 88.4489L128.781 84.9815C124.361 80.3893 118.789 76.5138 112.183 73.2927L109.991 77.7869ZM125.179 88.4489L121.598 91.9388C125.065 95.4953 127.56 99.4462 129.148 103.811L133.847 102.102L138.546 100.394C136.451 94.6333 133.168 89.4819 128.76 84.9589L125.179 88.4489ZM133.847 102.102L129.163 103.853C130.83 108.313 131.715 113.251 131.762 118.713L136.761 118.67L141.761 118.628C141.706 112.124 140.647 106.016 138.53 100.352L133.847 102.102ZM136.761 118.67L131.761 118.646C131.714 128.127 129.359 135.818 124.946 141.997L129.014 144.903L133.083 147.81C138.897 139.67 141.706 129.873 141.761 118.695L136.761 118.67ZM129.014 144.903L124.946 141.997C120.48 148.248 114.009 153.149 105.25 156.587L107.077 161.241L108.903 165.896C119.167 161.868 127.321 155.877 133.083 147.81L129.014 144.903ZM107.077 161.241L105.241 156.59C96.5148 160.034 85.7937 161.841 72.9432 161.841V166.841V171.841C86.6836 171.841 98.7182 169.915 108.912 165.892L107.077 161.241ZM72.9432 166.841V161.841C59.771 161.841 48.5074 159.891 39.0437 156.134L37.1989 160.781L35.354 165.428C46.2426 169.751 58.8086 171.841 72.9432 171.841V166.841ZM37.1989 160.781L39.0518 156.137C29.785 152.44 22.7446 146.839 17.7263 139.357L13.5739 142.142L9.42142 144.927C15.6531 154.218 24.3628 161.043 35.346 165.425L37.1989 160.781ZM13.5739 142.142L17.7457 139.386C12.8476 131.971 10.1848 122.21 10.1363 109.753L5.13636 109.773L0.136402 109.792C0.190205 123.62 3.15236 135.438 9.40198 144.898L13.5739 142.142ZM5.13636 109.773V114.773H45.6364V109.773V104.773H5.13636V109.773ZM45.6364 109.773L40.6434 110.038C40.9354 115.527 42.3283 120.471 45.0612 124.635L49.2415 121.892L53.4217 119.149C51.8592 116.768 50.8487 113.632 50.6293 109.507L45.6364 109.773ZM49.2415 121.892L45.0612 124.635C47.7876 128.79 51.5981 131.877 56.3012 133.919L58.2926 129.332L60.284 124.746C57.2144 123.413 54.9908 121.54 53.4217 119.149L49.2415 121.892ZM58.2926 129.332L56.323 133.928C61.0244 135.943 66.4051 136.864 72.3295 136.864V131.864V126.864C67.4131 126.864 63.4358 126.097 60.2622 124.737L58.2926 129.332ZM72.3295 131.864V136.864C77.2545 136.864 81.6903 136.26 85.4798 134.871L83.7585 130.176L82.0373 125.482C79.6904 126.342 76.5068 126.864 72.3295 126.864V131.864ZM83.7585 130.176L85.4798 134.871C89.1704 133.517 92.3553 131.499 94.6528 128.608L90.7386 125.497L86.8245 122.386C85.9515 123.484 84.483 124.585 82.0373 125.482L83.7585 130.176ZM90.7386 125.497L94.6528 128.608C96.9226 125.753 98.1192 122.418 98.1922 118.77L93.1932 118.67L88.1942 118.57C88.1649 120.036 87.7251 121.253 86.8245 122.386L90.7386 125.497ZM93.1932 118.67L98.1921 118.564C98.1168 115.029 96.9148 111.814 94.6116 109.127L90.8153 112.381L87.0191 115.635C87.7841 116.527 88.1673 117.505 88.1943 118.777L93.1932 118.67ZM90.8153 112.381L94.7091 109.244C92.4883 106.487 89.1773 104.445 85.3797 102.858L83.4517 107.472L81.5237 112.085C84.5783 113.361 86.1765 114.592 86.9216 115.517L90.8153 112.381ZM83.4517 107.472L85.4378 102.883C81.5959 101.22 76.6203 99.7572 70.6392 98.4456L69.5682 103.33L68.4971 108.213C74.1752 109.459 78.4553 110.757 81.4656 112.06L83.4517 107.472ZM69.5682 103.33L70.6224 98.4419L54.9746 95.0669L53.9205 99.9545L52.8663 104.842L68.514 108.217L69.5682 103.33ZM53.9205 99.9545L54.9804 95.0682C41.6367 92.1738 31.5278 87.4281 24.3152 81.0883L21.0142 84.8438L17.7132 88.5992C26.5574 96.3731 38.3861 101.701 52.8605 104.841L53.9205 99.9545ZM21.0142 84.8438L24.3405 81.1107C17.5977 75.1027 14.0788 66.8688 14.125 55.7936L9.125 55.7727L4.12504 55.7519C4.06892 69.2221 8.47614 80.3689 17.6879 88.5768L21.0142 84.8438ZM9.125 55.7727L14.1249 55.7471C14.0787 46.7378 16.4617 39.0707 21.1615 32.5358L17.1023 29.6165L13.043 26.6972C7.00417 35.094 4.06899 44.8645 4.12507 55.7984L9.125 55.7727ZM17.1023 29.6165L21.1579 32.5409C25.9921 25.8368 32.7343 20.5111 41.5847 16.6302L39.5767 12.0511L37.5688 7.47203C27.2941 11.9775 19.0534 18.362 13.0467 26.692L17.1023 29.6165ZM39.5767 12.0511L41.5757 16.6342C50.4533 12.762 60.773 10.7614 72.6364 10.7614V5.76136V0.761358C59.6475 0.761358 47.9274 2.95391 37.5777 7.46811L39.5767 12.0511ZM72.6364 5.76136V10.7614C84.7705 10.7614 94.9966 12.7925 103.458 16.6728L105.543 12.1278L107.627 7.58291C97.5773 2.97458 85.8658 0.761358 72.6364 0.761358V5.76136ZM105.543 12.1278L103.458 16.6728C111.947 20.5652 118.308 25.9556 122.749 32.7987L126.943 30.0767L131.137 27.3547C125.556 18.7546 117.65 12.1791 107.627 7.58291L105.543 12.1278ZM126.943 30.0767L122.77 32.8309C127.236 39.5973 129.567 47.5983 129.614 57.0249L134.614 57L139.614 56.9751C139.558 45.8448 136.775 35.897 131.116 27.3225L126.943 30.0767ZM134.614 57V52H93.8068V57V62H134.614V57ZM288.905 7.90909H293.905V2.90909H288.905V7.90909ZM288.905 165V170H293.905V165H288.905ZM253.314 165L249.194 167.833L250.684 170H253.314V165ZM196.553 82.4659L200.672 79.6326L199.182 77.4659H196.553V82.4659ZM195.632 82.4659V77.4659H190.632V82.4659H195.632ZM195.632 165V170H200.632V165H195.632ZM152.984 165H147.984V170H152.984V165ZM152.984 7.90909V2.90909H147.984V7.90909H152.984ZM189.189 7.90909L193.325 5.10007L191.837 2.90909H189.189V7.90909ZM245.03 90.1364L240.893 92.9454L242.381 95.1364H245.03V90.1364ZM246.257 90.1364V95.1364H251.257V90.1364H246.257ZM246.257 7.90909V2.90909H241.257V7.90909H246.257ZM288.905 7.90909H283.905V165H288.905H293.905V7.90909H288.905ZM288.905 165V160H253.314V165V170H288.905V165ZM253.314 165L257.434 162.167L200.672 79.6326L196.553 82.4659L192.433 85.2992L249.194 167.833L253.314 165ZM196.553 82.4659V77.4659H195.632V82.4659V87.4659H196.553V82.4659ZM195.632 82.4659H190.632V165H195.632H200.632V82.4659H195.632ZM195.632 165V160H152.984V165V170H195.632V165ZM152.984 165H157.984V7.90909H152.984H147.984V165H152.984ZM152.984 7.90909V12.9091H189.189V7.90909V2.90909H152.984V7.90909ZM189.189 7.90909L185.053 10.7181L240.893 92.9454L245.03 90.1364L249.166 87.3273L193.325 5.10007L189.189 7.90909ZM245.03 90.1364V95.1364H246.257V90.1364V85.1364H245.03V90.1364ZM246.257 90.1364H251.257V7.90909H246.257H241.257V90.1364H246.257ZM246.257 7.90909V12.9091H288.905V7.90909V2.90909H246.257V7.90909ZM451.058 130.713L455.405 133.184L455.41 133.176L451.058 130.713ZM423.521 157.943L425.866 162.359L425.874 162.355L425.881 162.351L423.521 157.943ZM346.05 157.866L343.666 162.262L343.678 162.268L343.69 162.274L346.05 157.866ZM318.589 130.56L314.23 133.008L314.236 133.019L314.243 133.03L318.589 130.56ZM318.589 42.2727L314.238 39.81L314.235 39.8161L318.589 42.2727ZM346.05 15.0426L348.403 19.4544L348.41 19.4506L346.05 15.0426ZM423.521 15.0426L421.161 19.4506L421.169 19.4547L421.176 19.4587L423.521 15.0426ZM451.058 42.2727L446.707 44.7355L446.711 44.7434L451.058 42.2727ZM413.626 62.6761L408.949 64.4439L408.958 64.4662L408.966 64.4884L413.626 62.6761ZM402.658 47.9489L399.785 52.0409L399.809 52.0583L399.834 52.0754L402.658 47.9489ZM366.99 47.9489L369.834 52.0614L369.843 52.0551L366.99 47.9489ZM356.021 62.6761L351.356 60.8763L351.353 60.8862L351.349 60.8962L356.021 62.6761ZM356.021 110.31L351.344 112.077L351.353 112.1L351.361 112.122L356.021 110.31ZM366.99 125.037L364.117 129.129L364.142 129.146L364.167 129.163L366.99 125.037ZM402.658 125.037L405.501 129.149L405.51 129.143L402.658 125.037ZM413.626 110.31L408.962 108.51L408.958 108.52L408.954 108.53L413.626 110.31ZM461.26 86.4545H456.26C456.26 103.306 452.984 117.159 446.707 128.25L451.058 130.713L455.41 133.176C462.735 120.233 466.26 104.58 466.26 86.4545H461.26ZM451.058 130.713L446.711 128.242C440.352 139.431 431.844 147.816 421.161 153.535L423.521 157.943L425.881 162.351C438.313 155.696 448.162 145.927 455.405 133.184L451.058 130.713ZM423.521 157.943L421.176 153.527C410.403 159.247 398.333 162.148 384.862 162.148V167.148V172.148C399.823 172.148 413.526 168.912 425.866 162.359L423.521 157.943ZM384.862 167.148V162.148C371.29 162.148 359.175 159.222 348.41 153.458L346.05 157.866L343.69 162.274C356.038 168.886 369.798 172.148 384.862 172.148V167.148ZM346.05 157.866L348.433 153.471C337.792 147.701 329.301 139.286 322.936 128.089L318.589 130.56L314.243 133.03C321.481 145.765 331.296 155.554 343.666 162.262L346.05 157.866ZM318.589 130.56L322.949 128.111C316.715 117.013 313.464 103.204 313.464 86.4545H308.464H303.464C303.464 104.478 306.964 120.072 314.23 133.008L318.589 130.56ZM308.464 86.4545H313.464C313.464 69.5963 316.718 55.7677 322.944 44.7293L318.589 42.2727L314.235 39.8161C306.961 52.7096 303.464 68.3355 303.464 86.4545H308.464ZM318.589 42.2727L322.941 44.7355C329.303 33.4937 337.785 25.1172 348.403 19.4544L346.05 15.0426L343.697 10.6308C331.303 17.2408 321.478 27.0177 314.238 39.81L318.589 42.2727ZM346.05 15.0426L348.41 19.4506C359.175 13.6868 371.29 10.7614 384.862 10.7614V5.76136V0.761358C369.798 0.761358 356.038 4.02338 343.69 10.6346L346.05 15.0426ZM384.862 5.76136V10.7614C398.326 10.7614 410.391 13.684 421.161 19.4506L423.521 15.0426L425.881 10.6346C413.538 4.02617 399.83 0.761358 384.862 0.761358V5.76136ZM423.521 15.0426L421.176 19.4587C431.845 25.1232 440.348 33.4993 446.707 44.7355L451.058 42.2727L455.41 39.81C448.167 27.012 438.312 17.2348 425.866 10.6265L423.521 15.0426ZM451.058 42.2727L446.711 44.7434C452.984 55.7787 456.26 69.6021 456.26 86.4545H461.26H466.26C466.26 68.3298 462.735 52.6986 455.405 39.802L451.058 42.2727ZM417.385 86.4545H422.385C422.385 76.6349 421.082 68.0523 418.286 60.8639L413.626 62.6761L408.966 64.4884C411.182 70.1864 412.385 77.456 412.385 86.4545H417.385ZM413.626 62.6761L418.304 60.9084C415.554 53.6328 411.327 47.8221 405.481 43.8223L402.658 47.9489L399.834 52.0754C403.704 54.7233 406.79 58.7308 408.949 64.4439L413.626 62.6761ZM402.658 47.9489L405.531 43.8568C399.725 39.7801 392.736 37.8864 384.862 37.8864V42.8864V47.8864C391.102 47.8864 395.977 49.3677 399.785 52.0409L402.658 47.9489ZM384.862 42.8864V37.8864C376.987 37.8864 369.984 39.7807 364.137 43.8426L366.99 47.9489L369.843 52.0551C373.712 49.367 378.624 47.8864 384.862 47.8864V42.8864ZM366.99 47.9489L364.146 43.8363C358.367 47.8328 354.153 53.6282 351.356 60.8763L356.021 62.6761L360.686 64.476C362.901 58.7354 366 54.7126 369.834 52.0614L366.99 47.9489ZM356.021 62.6761L351.349 60.8962C348.615 68.0736 347.339 76.6443 347.339 86.4545H352.339H357.339C357.339 77.4467 358.519 70.165 360.694 64.4561L356.021 62.6761ZM352.339 86.4545H347.339C347.339 96.2668 348.615 104.857 351.344 112.077L356.021 110.31L360.698 108.542C358.518 102.774 357.339 95.4605 357.339 86.4545H352.339ZM356.021 110.31L351.361 112.122C354.16 119.318 358.368 125.093 364.117 129.129L366.99 125.037L369.863 120.945C365.998 118.231 362.894 114.187 360.681 108.497L356.021 110.31ZM366.99 125.037L364.167 129.163C370.01 133.162 377.002 135.023 384.862 135.023V130.023V125.023C378.609 125.023 373.686 123.56 369.813 120.91L366.99 125.037ZM384.862 130.023V135.023C392.721 135.023 399.698 133.162 405.501 129.149L402.658 125.037L399.814 120.924C396.003 123.559 391.117 125.023 384.862 125.023V130.023ZM402.658 125.037L405.51 129.143C411.326 125.103 415.547 119.314 418.299 112.09L413.626 110.31L408.954 108.53C406.797 114.192 403.706 118.221 399.805 120.931L402.658 125.037ZM413.626 110.31L418.291 112.109C421.081 104.878 422.385 96.2762 422.385 86.4545H417.385H412.385C412.385 95.4511 411.183 102.753 408.962 108.51L413.626 110.31ZM510.964 165L506.169 166.414L507.226 170H510.964V165ZM464.635 7.90909V2.90909H457.947L459.839 9.32347L464.635 7.90909ZM512.192 7.90909L517.073 6.82443L516.203 2.90909H512.192V7.90909ZM533.669 104.557L528.788 105.641L529.658 109.557H533.669V104.557ZM534.896 104.557V109.557H538.75L539.731 105.831L534.896 104.557ZM560.362 7.90909V2.90909H556.509L555.527 6.63511L560.362 7.90909ZM597.794 7.90909L602.63 6.63888L601.65 2.90909H597.794V7.90909ZM623.26 104.864L618.424 106.134L619.404 109.864H623.26V104.864ZM624.487 104.864V109.864H628.501L629.369 105.945L624.487 104.864ZM645.964 7.90909V2.90909H641.951L641.083 6.82771L645.964 7.90909ZM693.521 7.90909L698.317 9.32347L700.209 2.90909H693.521V7.90909ZM647.192 165V170H650.93L651.988 166.414L647.192 165ZM606.385 165L601.601 166.455L602.68 170H606.385V165ZM579.692 77.25L584.475 75.7949L583.397 72.25H579.692V77.25ZM578.464 77.25V72.25H574.759L573.681 75.7949L578.464 77.25ZM551.771 165V170H555.477L556.555 166.455L551.771 165ZM510.964 165L515.76 163.586L469.431 6.49471L464.635 7.90909L459.839 9.32347L506.169 166.414L510.964 165ZM464.635 7.90909V12.9091H512.192V7.90909V2.90909H464.635V7.90909ZM512.192 7.90909L507.311 8.99374L528.788 105.641L533.669 104.557L538.55 103.472L517.073 6.82443L512.192 7.90909ZM533.669 104.557V109.557H534.896V104.557V99.5568H533.669V104.557ZM534.896 104.557L539.731 105.831L565.197 9.18306L560.362 7.90909L555.527 6.63511L530.061 103.283L534.896 104.557ZM560.362 7.90909V12.9091H597.794V7.90909V2.90909H560.362V7.90909ZM597.794 7.90909L592.958 9.17929L618.424 106.134L623.26 104.864L628.096 103.593L602.63 6.63888L597.794 7.90909ZM623.26 104.864V109.864H624.487V104.864V99.8636H623.26V104.864ZM624.487 104.864L629.369 105.945L650.846 8.99047L645.964 7.90909L641.083 6.82771L619.606 103.782L624.487 104.864ZM645.964 7.90909V12.9091H693.521V7.90909V2.90909H645.964V7.90909ZM693.521 7.90909L688.726 6.4947L642.396 163.586L647.192 165L651.988 166.414L698.317 9.32347L693.521 7.90909ZM647.192 165V160H606.385V165V170H647.192V165ZM606.385 165L611.169 163.545L584.475 75.7949L579.692 77.25L574.908 78.7051L601.601 166.455L606.385 165ZM579.692 77.25V72.25H578.464V77.25V82.25H579.692V77.25ZM578.464 77.25L573.681 75.7949L546.988 163.545L551.771 165L556.555 166.455L583.248 78.7051L578.464 77.25ZM551.771 165V160H510.964V165V170H551.771V165Z" fill="black" mask="url(#path-1-outside-1_95_93)"/>
</svg>
