<svg width="569" height="172" viewBox="0 0 569 172" fill="none" xmlns="http://www.w3.org/2000/svg">
<mask id="path-1-outside-1_96_98" maskUnits="userSpaceOnUse" x="0" y="0" width="569" height="172" fill="black">
<rect fill="white" width="569" height="172"/>
<path d="M93.8068 57C93.3977 51.8864 91.4801 47.8977 88.054 45.0341C84.679 42.1704 79.5398 40.7386 72.6364 40.7386C68.2386 40.7386 64.6335 41.2756 61.821 42.3494C59.0597 43.3722 57.0142 44.7784 55.6847 46.5682C54.3551 48.3579 53.6648 50.4034 53.6136 52.7045C53.5114 54.5966 53.8438 56.3097 54.6108 57.8438C55.429 59.3267 56.7074 60.6818 58.446 61.9091C60.1847 63.0852 62.4091 64.1591 65.1193 65.1307C67.8295 66.1023 71.0511 66.9716 74.7841 67.7386L87.6705 70.5C96.3636 72.3409 103.804 74.7699 109.991 77.7869C116.179 80.804 121.241 84.358 125.179 88.4489C129.116 92.4886 132.006 97.0398 133.847 102.102C135.739 107.165 136.71 112.687 136.761 118.67C136.71 129 134.128 137.744 129.014 144.903C123.901 152.062 116.588 157.509 107.077 161.241C97.6165 164.974 86.2386 166.841 72.9432 166.841C59.2898 166.841 47.375 164.821 37.1989 160.781C27.0739 156.741 19.1989 150.528 13.5739 142.142C8 133.705 5.1875 122.915 5.13636 109.773H45.6364C45.892 114.58 47.0938 118.619 49.2415 121.892C51.3892 125.165 54.4063 127.645 58.2926 129.332C62.2301 131.02 66.9091 131.864 72.3295 131.864C76.8807 131.864 80.6903 131.301 83.7585 130.176C86.8267 129.051 89.1534 127.491 90.7386 125.497C92.3239 123.503 93.142 121.227 93.1932 118.67C93.142 116.267 92.3494 114.17 90.8153 112.381C89.3324 110.54 86.8778 108.903 83.4517 107.472C80.0256 105.989 75.3977 104.608 69.5682 103.33L53.9205 99.9545C40.0114 96.9375 29.0426 91.9006 21.0142 84.8438C13.0369 77.7358 9.07386 68.0455 9.125 55.7727C9.07386 45.8011 11.733 37.0824 17.1023 29.6165C22.5227 22.0994 30.0142 16.2443 39.5767 12.0511C49.1903 7.85795 60.2102 5.76136 72.6364 5.76136C85.3182 5.76136 96.2869 7.88352 105.543 12.1278C114.798 16.3722 121.932 22.3551 126.943 30.0767C132.006 37.7472 134.563 46.7216 134.614 57H93.8068ZM245.95 7.90909H288.598V108.545C288.598 120.511 285.734 130.866 280.007 139.611C274.331 148.304 266.405 155.028 256.229 159.784C246.053 164.489 234.24 166.841 220.791 166.841C207.24 166.841 195.376 164.489 185.2 159.784C175.024 155.028 167.098 148.304 161.422 139.611C155.797 130.866 152.984 120.511 152.984 108.545V7.90909H195.632V104.864C195.632 109.722 196.706 114.068 198.854 117.903C201.001 121.687 203.967 124.653 207.751 126.801C211.587 128.949 215.933 130.023 220.791 130.023C225.7 130.023 230.047 128.949 233.831 126.801C237.615 124.653 240.581 121.687 242.729 117.903C244.876 114.068 245.95 109.722 245.95 104.864V7.90909ZM308.867 165V7.90909H376.674C388.333 7.90909 398.535 10.0312 407.279 14.2756C416.023 18.5199 422.825 24.6307 427.683 32.608C432.54 40.5852 434.969 50.1477 434.969 61.2955C434.969 72.5455 432.464 82.0312 427.452 89.7528C422.492 97.4744 415.512 103.304 406.512 107.241C397.563 111.179 387.106 113.148 375.14 113.148H334.64V80.0114H366.549C371.56 80.0114 375.83 79.3977 379.359 78.1705C382.938 76.892 385.674 74.8722 387.566 72.1108C389.509 69.3494 390.481 65.7443 390.481 61.2955C390.481 56.7955 389.509 53.1392 387.566 50.3267C385.674 47.4631 382.938 45.3665 379.359 44.0369C375.83 42.6562 371.56 41.9659 366.549 41.9659H351.515V165H308.867ZM400.913 92.8977L440.185 165H393.856L355.504 92.8977H400.913ZM453.148 165V7.90909H563.603V42.2727H495.796V69.2727H556.853V103.636H495.796V165H453.148Z"/>
</mask>
<path d="M93.8068 57C93.3977 51.8864 91.4801 47.8977 88.054 45.0341C84.679 42.1704 79.5398 40.7386 72.6364 40.7386C68.2386 40.7386 64.6335 41.2756 61.821 42.3494C59.0597 43.3722 57.0142 44.7784 55.6847 46.5682C54.3551 48.3579 53.6648 50.4034 53.6136 52.7045C53.5114 54.5966 53.8438 56.3097 54.6108 57.8438C55.429 59.3267 56.7074 60.6818 58.446 61.9091C60.1847 63.0852 62.4091 64.1591 65.1193 65.1307C67.8295 66.1023 71.0511 66.9716 74.7841 67.7386L87.6705 70.5C96.3636 72.3409 103.804 74.7699 109.991 77.7869C116.179 80.804 121.241 84.358 125.179 88.4489C129.116 92.4886 132.006 97.0398 133.847 102.102C135.739 107.165 136.71 112.687 136.761 118.67C136.71 129 134.128 137.744 129.014 144.903C123.901 152.062 116.588 157.509 107.077 161.241C97.6165 164.974 86.2386 166.841 72.9432 166.841C59.2898 166.841 47.375 164.821 37.1989 160.781C27.0739 156.741 19.1989 150.528 13.5739 142.142C8 133.705 5.1875 122.915 5.13636 109.773H45.6364C45.892 114.58 47.0938 118.619 49.2415 121.892C51.3892 125.165 54.4063 127.645 58.2926 129.332C62.2301 131.02 66.9091 131.864 72.3295 131.864C76.8807 131.864 80.6903 131.301 83.7585 130.176C86.8267 129.051 89.1534 127.491 90.7386 125.497C92.3239 123.503 93.142 121.227 93.1932 118.67C93.142 116.267 92.3494 114.17 90.8153 112.381C89.3324 110.54 86.8778 108.903 83.4517 107.472C80.0256 105.989 75.3977 104.608 69.5682 103.33L53.9205 99.9545C40.0114 96.9375 29.0426 91.9006 21.0142 84.8438C13.0369 77.7358 9.07386 68.0455 9.125 55.7727C9.07386 45.8011 11.733 37.0824 17.1023 29.6165C22.5227 22.0994 30.0142 16.2443 39.5767 12.0511C49.1903 7.85795 60.2102 5.76136 72.6364 5.76136C85.3182 5.76136 96.2869 7.88352 105.543 12.1278C114.798 16.3722 121.932 22.3551 126.943 30.0767C132.006 37.7472 134.563 46.7216 134.614 57H93.8068ZM245.95 7.90909H288.598V108.545C288.598 120.511 285.734 130.866 280.007 139.611C274.331 148.304 266.405 155.028 256.229 159.784C246.053 164.489 234.24 166.841 220.791 166.841C207.24 166.841 195.376 164.489 185.2 159.784C175.024 155.028 167.098 148.304 161.422 139.611C155.797 130.866 152.984 120.511 152.984 108.545V7.90909H195.632V104.864C195.632 109.722 196.706 114.068 198.854 117.903C201.001 121.687 203.967 124.653 207.751 126.801C211.587 128.949 215.933 130.023 220.791 130.023C225.7 130.023 230.047 128.949 233.831 126.801C237.615 124.653 240.581 121.687 242.729 117.903C244.876 114.068 245.95 109.722 245.95 104.864V7.90909ZM308.867 165V7.90909H376.674C388.333 7.90909 398.535 10.0312 407.279 14.2756C416.023 18.5199 422.825 24.6307 427.683 32.608C432.54 40.5852 434.969 50.1477 434.969 61.2955C434.969 72.5455 432.464 82.0312 427.452 89.7528C422.492 97.4744 415.512 103.304 406.512 107.241C397.563 111.179 387.106 113.148 375.14 113.148H334.64V80.0114H366.549C371.56 80.0114 375.83 79.3977 379.359 78.1705C382.938 76.892 385.674 74.8722 387.566 72.1108C389.509 69.3494 390.481 65.7443 390.481 61.2955C390.481 56.7955 389.509 53.1392 387.566 50.3267C385.674 47.4631 382.938 45.3665 379.359 44.0369C375.83 42.6562 371.56 41.9659 366.549 41.9659H351.515V165H308.867ZM400.913 92.8977L440.185 165H393.856L355.504 92.8977H400.913ZM453.148 165V7.90909H563.603V42.2727H495.796V69.2727H556.853V103.636H495.796V165H453.148Z" fill="#9AD0FF"/>
<path d="M93.8068 57L88.8227 57.3987L89.1908 62H93.8068V57ZM88.054 45.0341L84.8191 48.8466L84.8332 48.8586L84.8474 48.8705L88.054 45.0341ZM61.821 42.3494L63.5576 47.0382L63.5811 47.0295L63.6045 47.0205L61.821 42.3494ZM55.6847 46.5682L51.6709 43.5865L51.6709 43.5866L55.6847 46.5682ZM53.6136 52.7045L58.6063 52.9744L58.6106 52.8951L58.6124 52.8156L53.6136 52.7045ZM54.6108 57.8438L50.1387 60.0798L50.184 60.1704L50.2329 60.2591L54.6108 57.8438ZM58.446 61.9091L55.5626 65.9939L55.6033 66.0226L55.6445 66.0505L58.446 61.9091ZM74.7841 67.7386L75.8317 62.8496L75.8111 62.8452L75.7905 62.841L74.7841 67.7386ZM87.6705 70.5L86.6228 75.389L86.6346 75.3915L87.6705 70.5ZM109.991 77.7869L107.8 82.2811L109.991 77.7869ZM125.179 88.4489L121.577 91.9162L121.587 91.9275L121.598 91.9388L125.179 88.4489ZM133.847 102.102L129.148 103.811L129.155 103.832L129.163 103.853L133.847 102.102ZM136.761 118.67L141.761 118.695L141.761 118.661L141.761 118.628L136.761 118.67ZM129.014 144.903L133.083 147.81L133.083 147.81L129.014 144.903ZM107.077 161.241L105.25 156.587L105.241 156.59L107.077 161.241ZM37.1989 160.781L35.346 165.425L35.354 165.428L37.1989 160.781ZM13.5739 142.142L9.40198 144.898L9.41165 144.913L9.42142 144.927L13.5739 142.142ZM5.13636 109.773V104.773H0.116871L0.136402 109.792L5.13636 109.773ZM45.6364 109.773L50.6293 109.507L50.3775 104.773H45.6364V109.773ZM49.2415 121.892L45.0612 124.635L45.0612 124.635L49.2415 121.892ZM58.2926 129.332L56.3012 133.919L56.3121 133.923L56.323 133.928L58.2926 129.332ZM83.7585 130.176L85.4798 134.871L85.4798 134.871L83.7585 130.176ZM90.7386 125.497L94.6528 128.608L94.6528 128.608L90.7386 125.497ZM93.1932 118.67L98.1922 118.77L98.1942 118.667L98.1921 118.564L93.1932 118.67ZM90.8153 112.381L86.9216 115.517L86.9694 115.577L87.0191 115.635L90.8153 112.381ZM83.4517 107.472L81.4656 112.06L81.4946 112.073L81.5237 112.085L83.4517 107.472ZM69.5682 103.33L70.6392 98.4456L70.6308 98.4438L70.6224 98.4419L69.5682 103.33ZM53.9205 99.9545L52.8605 104.841L52.8663 104.842L53.9205 99.9545ZM21.0142 84.8438L17.6879 88.5768L17.7005 88.5881L17.7132 88.5992L21.0142 84.8438ZM9.125 55.7727L14.125 55.7936L14.1251 55.7703L14.1249 55.7471L9.125 55.7727ZM17.1023 29.6165L13.0467 26.692L13.043 26.6972L17.1023 29.6165ZM39.5767 12.0511L37.5777 7.4681L37.5688 7.47203L39.5767 12.0511ZM105.543 12.1278L103.458 16.6728L103.458 16.6728L105.543 12.1278ZM126.943 30.0767L122.749 32.7987L122.76 32.8149L122.77 32.8309L126.943 30.0767ZM134.614 57V62H139.639L139.614 56.9751L134.614 57ZM93.8068 57L98.7909 56.6013C98.2921 50.3663 95.8722 45.0522 91.2605 41.1977L88.054 45.0341L84.8474 48.8705C87.088 50.7432 88.5034 53.4064 88.8227 57.3987L93.8068 57ZM88.054 45.0341L91.2889 41.2215C86.6244 37.2638 80.0945 35.7386 72.6364 35.7386V40.7386V45.7386C78.985 45.7386 82.7336 47.0771 84.8191 48.8466L88.054 45.0341ZM72.6364 40.7386V35.7386C67.8849 35.7386 63.6176 36.3114 60.0375 37.6783L61.821 42.3494L63.6045 47.0205C65.6494 46.2397 68.5924 45.7386 72.6364 45.7386V40.7386ZM61.821 42.3494L60.0844 37.6607C56.7005 38.914 53.7364 40.8061 51.6709 43.5865L55.6847 46.5682L59.6984 49.5498C60.292 48.7507 61.4188 47.8303 63.5576 47.0382L61.821 42.3494ZM55.6847 46.5682L51.6709 43.5866C49.7026 46.2363 48.6882 49.2923 48.6149 52.5935L53.6136 52.7045L58.6124 52.8156C58.6413 51.5145 59.0076 50.4796 59.6984 49.5498L55.6847 46.5682ZM53.6136 52.7045L48.6209 52.4347C48.4769 55.1001 48.944 57.6905 50.1387 60.0798L54.6108 57.8438L59.0829 55.6077C58.7435 54.9288 58.5459 54.0931 58.6063 52.9744L53.6136 52.7045ZM54.6108 57.8438L50.2329 60.2591C51.498 62.5521 53.3602 64.4393 55.5626 65.9939L58.446 61.9091L61.3294 57.8242C60.0545 56.9243 59.36 56.1013 58.9887 55.4284L54.6108 57.8438ZM58.446 61.9091L55.6445 66.0505C57.8306 67.5294 60.4628 68.7729 63.432 69.8374L65.1193 65.1307L66.8066 60.424C64.3554 59.5453 62.5387 58.6411 61.2476 57.7677L58.446 61.9091ZM65.1193 65.1307L63.432 69.8374C66.4222 70.9093 69.8827 71.836 73.7777 72.6363L74.7841 67.7386L75.7905 62.841C72.2196 62.1072 69.2369 61.2952 66.8066 60.424L65.1193 65.1307ZM74.7841 67.7386L73.7364 72.6276L86.6228 75.389L87.6705 70.5L88.7181 65.611L75.8317 62.8496L74.7841 67.7386ZM87.6705 70.5L86.6346 75.3915C95.037 77.1709 102.068 79.4864 107.8 82.2811L109.991 77.7869L112.183 73.2927C105.54 70.0534 97.6902 67.511 88.7063 65.6085L87.6705 70.5ZM109.991 77.7869L107.8 82.2811C113.569 85.0942 118.122 88.3267 121.577 91.9162L125.179 88.4489L128.781 84.9815C124.361 80.3893 118.789 76.5138 112.183 73.2927L109.991 77.7869ZM125.179 88.4489L121.598 91.9388C125.065 95.4953 127.56 99.4462 129.148 103.811L133.847 102.102L138.546 100.394C136.451 94.6333 133.168 89.4819 128.76 84.9589L125.179 88.4489ZM133.847 102.102L129.163 103.853C130.83 108.313 131.715 113.251 131.762 118.713L136.761 118.67L141.761 118.628C141.706 112.124 140.647 106.016 138.53 100.352L133.847 102.102ZM136.761 118.67L131.761 118.646C131.714 128.127 129.359 135.818 124.946 141.997L129.014 144.903L133.083 147.81C138.897 139.67 141.706 129.873 141.761 118.695L136.761 118.67ZM129.014 144.903L124.946 141.997C120.48 148.248 114.009 153.149 105.25 156.587L107.077 161.241L108.903 165.896C119.167 161.868 127.321 155.877 133.083 147.81L129.014 144.903ZM107.077 161.241L105.241 156.59C96.5148 160.034 85.7937 161.841 72.9432 161.841V166.841V171.841C86.6836 171.841 98.7182 169.915 108.912 165.892L107.077 161.241ZM72.9432 166.841V161.841C59.771 161.841 48.5074 159.891 39.0437 156.134L37.1989 160.781L35.354 165.428C46.2426 169.751 58.8086 171.841 72.9432 171.841V166.841ZM37.1989 160.781L39.0518 156.137C29.785 152.44 22.7446 146.839 17.7263 139.357L13.5739 142.142L9.42142 144.927C15.6531 154.218 24.3628 161.043 35.346 165.425L37.1989 160.781ZM13.5739 142.142L17.7457 139.386C12.8476 131.971 10.1848 122.21 10.1363 109.753L5.13636 109.773L0.136402 109.792C0.190205 123.62 3.15236 135.438 9.40198 144.898L13.5739 142.142ZM5.13636 109.773V114.773H45.6364V109.773V104.773H5.13636V109.773ZM45.6364 109.773L40.6434 110.038C40.9354 115.527 42.3283 120.471 45.0612 124.635L49.2415 121.892L53.4217 119.149C51.8592 116.768 50.8487 113.632 50.6293 109.507L45.6364 109.773ZM49.2415 121.892L45.0612 124.635C47.7876 128.79 51.5981 131.877 56.3012 133.919L58.2926 129.332L60.284 124.746C57.2144 123.413 54.9908 121.54 53.4217 119.149L49.2415 121.892ZM58.2926 129.332L56.323 133.928C61.0244 135.943 66.4051 136.864 72.3295 136.864V131.864V126.864C67.4131 126.864 63.4358 126.097 60.2622 124.737L58.2926 129.332ZM72.3295 131.864V136.864C77.2545 136.864 81.6903 136.26 85.4798 134.871L83.7585 130.176L82.0373 125.482C79.6904 126.342 76.5068 126.864 72.3295 126.864V131.864ZM83.7585 130.176L85.4798 134.871C89.1704 133.517 92.3553 131.499 94.6528 128.608L90.7386 125.497L86.8245 122.386C85.9515 123.484 84.483 124.585 82.0373 125.482L83.7585 130.176ZM90.7386 125.497L94.6528 128.608C96.9226 125.753 98.1192 122.418 98.1922 118.77L93.1932 118.67L88.1942 118.57C88.1649 120.036 87.7251 121.253 86.8245 122.386L90.7386 125.497ZM93.1932 118.67L98.1921 118.564C98.1168 115.029 96.9148 111.814 94.6116 109.127L90.8153 112.381L87.0191 115.635C87.7841 116.527 88.1673 117.505 88.1943 118.777L93.1932 118.67ZM90.8153 112.381L94.7091 109.244C92.4883 106.487 89.1773 104.445 85.3797 102.858L83.4517 107.472L81.5237 112.085C84.5783 113.361 86.1765 114.592 86.9216 115.517L90.8153 112.381ZM83.4517 107.472L85.4378 102.883C81.5959 101.22 76.6203 99.7572 70.6392 98.4456L69.5682 103.33L68.4971 108.213C74.1752 109.459 78.4553 110.757 81.4656 112.06L83.4517 107.472ZM69.5682 103.33L70.6224 98.4419L54.9746 95.0669L53.9205 99.9545L52.8663 104.842L68.514 108.217L69.5682 103.33ZM53.9205 99.9545L54.9804 95.0682C41.6367 92.1738 31.5278 87.4281 24.3152 81.0883L21.0142 84.8438L17.7132 88.5992C26.5574 96.3731 38.3861 101.701 52.8605 104.841L53.9205 99.9545ZM21.0142 84.8438L24.3405 81.1107C17.5977 75.1027 14.0788 66.8688 14.125 55.7936L9.125 55.7727L4.12504 55.7519C4.06892 69.2221 8.47614 80.3689 17.6879 88.5768L21.0142 84.8438ZM9.125 55.7727L14.1249 55.7471C14.0787 46.7378 16.4617 39.0707 21.1615 32.5358L17.1023 29.6165L13.043 26.6972C7.00417 35.094 4.06899 44.8645 4.12507 55.7984L9.125 55.7727ZM17.1023 29.6165L21.1579 32.5409C25.9921 25.8368 32.7343 20.5111 41.5847 16.6302L39.5767 12.0511L37.5688 7.47203C27.2941 11.9775 19.0534 18.362 13.0467 26.692L17.1023 29.6165ZM39.5767 12.0511L41.5757 16.6342C50.4533 12.762 60.773 10.7614 72.6364 10.7614V5.76136V0.761358C59.6475 0.761358 47.9274 2.95391 37.5777 7.46811L39.5767 12.0511ZM72.6364 5.76136V10.7614C84.7705 10.7614 94.9966 12.7925 103.458 16.6728L105.543 12.1278L107.627 7.58291C97.5773 2.97458 85.8658 0.761358 72.6364 0.761358V5.76136ZM105.543 12.1278L103.458 16.6728C111.947 20.5652 118.308 25.9556 122.749 32.7987L126.943 30.0767L131.137 27.3547C125.556 18.7546 117.65 12.1791 107.627 7.58291L105.543 12.1278ZM126.943 30.0767L122.77 32.8309C127.236 39.5973 129.567 47.5983 129.614 57.0249L134.614 57L139.614 56.9751C139.558 45.8448 136.775 35.897 131.116 27.3225L126.943 30.0767ZM134.614 57V52H93.8068V57V62H134.614V57ZM245.95 7.90909V2.90909H240.95V7.90909H245.95ZM288.598 7.90909H293.598V2.90909H288.598V7.90909ZM280.007 139.611L275.824 136.871L275.821 136.877L280.007 139.611ZM256.229 159.784L258.327 164.323L258.336 164.318L258.346 164.314L256.229 159.784ZM185.2 159.784L183.083 164.314L183.093 164.318L183.102 164.323L185.2 159.784ZM161.422 139.611L157.217 142.316L157.226 142.33L157.235 142.344L161.422 139.611ZM152.984 7.90909V2.90909H147.984V7.90909H152.984ZM195.632 7.90909H200.632V2.90909H195.632V7.90909ZM198.854 117.903L194.491 120.346L194.498 120.359L194.505 120.371L198.854 117.903ZM207.751 126.801L205.283 131.15L205.296 131.157L205.308 131.164L207.751 126.801ZM233.831 126.801L236.299 131.15L236.299 131.15L233.831 126.801ZM242.729 117.903L247.077 120.371L247.084 120.359L247.091 120.346L242.729 117.903ZM245.95 7.90909V12.9091H288.598V7.90909V2.90909H245.95V7.90909ZM288.598 7.90909H283.598V108.545H288.598H293.598V7.90909H288.598ZM288.598 108.545H283.598C283.598 119.683 280.944 129.054 275.824 136.871L280.007 139.611L284.19 142.35C290.524 132.679 293.598 121.34 293.598 108.545H288.598ZM280.007 139.611L275.821 136.877C270.695 144.727 263.516 150.859 254.112 155.254L256.229 159.784L258.346 164.314C269.294 159.197 277.967 151.881 284.194 142.344L280.007 139.611ZM256.229 159.784L254.131 155.246C244.73 159.592 233.658 161.841 220.791 161.841V166.841V171.841C234.822 171.841 247.375 169.386 258.327 164.323L256.229 159.784ZM220.791 166.841V161.841C207.816 161.841 196.694 159.589 187.298 155.246L185.2 159.784L183.102 164.323C194.059 169.388 206.664 171.841 220.791 171.841V166.841ZM185.2 159.784L187.317 155.254C177.913 150.859 170.734 144.727 165.608 136.877L161.422 139.611L157.235 142.344C163.462 151.881 172.135 159.197 183.083 164.314L185.2 159.784ZM161.422 139.611L165.627 136.906C160.596 129.084 157.984 119.7 157.984 108.545H152.984H147.984C147.984 121.322 150.998 132.649 157.217 142.316L161.422 139.611ZM152.984 108.545H157.984V7.90909H152.984H147.984V108.545H152.984ZM152.984 7.90909V12.9091H195.632V7.90909V2.90909H152.984V7.90909ZM195.632 7.90909H190.632V104.864H195.632H200.632V7.90909H195.632ZM195.632 104.864H190.632C190.632 110.485 191.883 115.688 194.491 120.346L198.854 117.903L203.216 115.46C201.529 112.448 200.632 108.958 200.632 104.864H195.632ZM198.854 117.903L194.505 120.371C197.099 124.941 200.714 128.556 205.283 131.15L207.751 126.801L210.219 122.453C207.22 120.751 204.904 118.434 203.202 115.435L198.854 117.903ZM207.751 126.801L205.308 131.164C209.966 133.772 215.17 135.023 220.791 135.023V130.023V125.023C216.697 125.023 213.207 124.126 210.194 122.439L207.751 126.801ZM220.791 130.023V135.023C226.453 135.023 231.67 133.777 236.299 131.15L233.831 126.801L231.363 122.453C228.424 124.121 224.948 125.023 220.791 125.023V130.023ZM233.831 126.801L236.299 131.15C240.868 128.556 244.484 124.941 247.077 120.371L242.729 117.903L238.38 115.435C236.678 118.434 234.362 120.751 231.363 122.453L233.831 126.801ZM242.729 117.903L247.091 120.346C249.7 115.688 250.95 110.485 250.95 104.864H245.95H240.95C240.95 108.958 240.053 112.448 238.366 115.46L242.729 117.903ZM245.95 104.864H250.95V7.90909H245.95H240.95V104.864H245.95ZM308.867 165H303.867V170H308.867V165ZM308.867 7.90909V2.90909H303.867V7.90909H308.867ZM427.683 32.608L431.953 30.0074L431.953 30.0074L427.683 32.608ZM427.452 89.7528L423.258 87.0308L423.252 87.0406L423.246 87.0505L427.452 89.7528ZM406.512 107.241L404.508 102.661L404.498 102.665L406.512 107.241ZM334.64 113.148H329.64V118.148H334.64V113.148ZM334.64 80.0114V75.0114H329.64V80.0114H334.64ZM379.359 78.1705L381.001 82.8929L381.021 82.8861L381.04 82.8792L379.359 78.1705ZM387.566 72.1108L383.477 69.2333L383.459 69.2589L383.441 69.2846L387.566 72.1108ZM387.566 50.3267L383.394 53.083L383.423 53.1262L383.452 53.1689L387.566 50.3267ZM379.359 44.0369L377.537 48.6931L377.577 48.7089L377.618 48.724L379.359 44.0369ZM351.515 41.9659V36.9659H346.515V41.9659H351.515ZM351.515 165V170H356.515V165H351.515ZM400.913 92.8977L405.304 90.5061L403.883 87.8977H400.913V92.8977ZM440.185 165V170H448.602L444.576 162.608L440.185 165ZM393.856 165L389.441 167.348L390.852 170H393.856V165ZM355.504 92.8977V87.8977H347.181L351.089 95.2458L355.504 92.8977ZM308.867 165H313.867V7.90909H308.867H303.867V165H308.867ZM308.867 7.90909V12.9091H376.674V7.90909V2.90909H308.867V7.90909ZM376.674 7.90909V12.9091C387.726 12.9091 397.154 14.9191 405.096 18.7737L407.279 14.2756L409.462 9.77743C399.915 5.1434 388.94 2.90909 376.674 2.90909V7.90909ZM407.279 14.2756L405.096 18.7737C413.014 22.6169 419.074 28.0854 423.412 35.2086L427.683 32.608L431.953 30.0074C426.575 21.1759 419.033 14.4229 409.462 9.77743L407.279 14.2756ZM427.683 32.608L423.412 35.2086C427.708 42.2624 429.969 50.8862 429.969 61.2955H434.969H439.969C439.969 49.4092 437.373 38.908 431.953 30.0074L427.683 32.608ZM434.969 61.2955H429.969C429.969 71.7953 427.637 80.2836 423.258 87.0308L427.452 89.7528L431.647 92.4748C437.29 83.7789 439.969 73.2956 439.969 61.2955H434.969ZM427.452 89.7528L423.246 87.0505C418.856 93.8832 412.671 99.0892 404.508 102.661L406.512 107.241L408.516 111.822C418.353 107.519 426.128 101.066 431.659 92.4552L427.452 89.7528ZM406.512 107.241L404.498 102.665C396.309 106.268 386.564 108.148 375.14 108.148V113.148V118.148C387.648 118.148 398.817 116.09 408.526 111.818L406.512 107.241ZM375.14 113.148V108.148H334.64V113.148V118.148H375.14V113.148ZM334.64 113.148H339.64V80.0114H334.64H329.64V113.148H334.64ZM334.64 80.0114V85.0114H366.549V80.0114V75.0114H334.64V80.0114ZM366.549 80.0114V85.0114C371.941 85.0114 376.799 84.3546 381.001 82.8929L379.359 78.1705L377.716 73.448C374.862 74.4408 371.18 75.0114 366.549 75.0114V80.0114ZM379.359 78.1705L381.04 82.8792C385.472 81.2964 389.124 78.6827 391.691 74.9369L387.566 72.1108L383.441 69.2846C382.224 71.0616 380.404 72.4877 377.677 73.4617L379.359 78.1705ZM387.566 72.1108L391.655 74.9883C394.354 71.1536 395.481 66.4506 395.481 61.2955H390.481H385.481C385.481 65.0381 384.665 67.5453 383.477 69.2333L387.566 72.1108ZM390.481 61.2955H395.481C395.481 56.0975 394.357 51.3603 391.68 47.4845L387.566 50.3267L383.452 53.1689C384.661 54.9182 385.481 57.4934 385.481 61.2955H390.481ZM387.566 50.3267L391.738 47.5704C389.195 43.7225 385.556 41.0052 381.1 39.3498L379.359 44.0369L377.618 48.724C380.32 49.7278 382.153 51.2036 383.394 53.083L387.566 50.3267ZM379.359 44.0369L381.181 39.3807C376.918 37.7126 371.994 36.9659 366.549 36.9659V41.9659V46.9659C371.127 46.9659 374.743 47.5999 377.537 48.6931L379.359 44.0369ZM366.549 41.9659V36.9659H351.515V41.9659V46.9659H366.549V41.9659ZM351.515 41.9659H346.515V165H351.515H356.515V41.9659H351.515ZM351.515 165V160H308.867V165V170H351.515V165ZM400.913 92.8977L396.522 95.2894L435.794 167.392L440.185 165L444.576 162.608L405.304 90.5061L400.913 92.8977ZM440.185 165V160H393.856V165V170H440.185V165ZM393.856 165L398.27 162.652L359.918 90.5497L355.504 92.8977L351.089 95.2458L389.441 167.348L393.856 165ZM355.504 92.8977V97.8977H400.913V92.8977V87.8977H355.504V92.8977ZM453.148 165H448.148V170H453.148V165ZM453.148 7.90909V2.90909H448.148V7.90909H453.148ZM563.603 7.90909H568.603V2.90909H563.603V7.90909ZM563.603 42.2727V47.2727H568.603V42.2727H563.603ZM495.796 42.2727V37.2727H490.796V42.2727H495.796ZM495.796 69.2727H490.796V74.2727H495.796V69.2727ZM556.853 69.2727H561.853V64.2727H556.853V69.2727ZM556.853 103.636V108.636H561.853V103.636H556.853ZM495.796 103.636V98.6364H490.796V103.636H495.796ZM495.796 165V170H500.796V165H495.796ZM453.148 165H458.148V7.90909H453.148H448.148V165H453.148ZM453.148 7.90909V12.9091H563.603V7.90909V2.90909H453.148V7.90909ZM563.603 7.90909H558.603V42.2727H563.603H568.603V7.90909H563.603ZM563.603 42.2727V37.2727H495.796V42.2727V47.2727H563.603V42.2727ZM495.796 42.2727H490.796V69.2727H495.796H500.796V42.2727H495.796ZM495.796 69.2727V74.2727H556.853V69.2727V64.2727H495.796V69.2727ZM556.853 69.2727H551.853V103.636H556.853H561.853V69.2727H556.853ZM556.853 103.636V98.6364H495.796V103.636V108.636H556.853V103.636ZM495.796 103.636H490.796V165H495.796H500.796V103.636H495.796ZM495.796 165V160H453.148V165V170H495.796V165Z" fill="black" mask="url(#path-1-outside-1_96_98)"/>
</svg>
